<svg width="410" height="472" viewBox="0 0 410 472" fill="none" xmlns="http://www.w3.org/2000/svg">
<path d="M218.385 32.2913C218.385 32.2913 194.854 -13.2961 144.848 3.8605C94.8432 21.017 113.963 71.0161 113.963 71.0161C113.963 71.0161 95.3334 60.7222 76.2138 71.9965C57.0942 83.2708 63.9577 100.427 63.9577 100.427C63.9577 100.427 51.7015 100.918 44.838 110.231C37.9746 119.545 43.3673 132.289 47.2893 134.25C47.2893 134.25 28.1697 145.525 28.6599 153.858C29.1502 162.191 94.8432 127.878 122.297 113.662C149.751 99.447 231.132 55.8203 241.427 50.4283C251.722 45.0362 235.054 44.0558 229.661 48.9577C224.268 53.8596 283.588 21.9974 264.959 21.017C246.329 20.0367 218.385 32.2913 218.385 32.2913Z" fill="#F3E7D9"/>
<path d="M313.248 37.4383C313.248 37.4383 301.972 47.7323 308.836 46.7519C315.699 45.7715 362.273 22.2425 367.666 18.321C373.058 14.3995 371.587 7.5369 366.195 6.55653C360.802 5.57615 349.036 11.9486 346.585 21.7523C346.585 21.7523 344.134 3.12522 330.407 3.6154C316.68 4.10559 311.777 26.164 313.248 37.4383Z" fill="#F3E7D9"/>
<path d="M86.3323 447.764C86.3323 447.764 75.4733 446.215 64.6094 446.215C53.7455 446.215 49.8677 453.97 54.525 453.97C54.525 453.97 21.9431 459.401 38.2341 462.504C54.525 465.602 104.952 461.725 86.3323 447.764Z" fill="#33A86D"/>
<path d="M266.449 428.353C269.592 425.343 258.492 424.946 244.761 425.563C227.332 426.348 230.901 430.186 230.901 430.186C230.901 430.186 221.469 429.706 216.66 432.662C213.723 434.465 218.199 435.617 231.676 436.412C245.148 437.206 249.384 432.681 249.384 432.681C249.384 432.681 263.302 431.363 266.449 428.353Z" fill="#33A86D"/>
<path d="M117.11 429.843C120.253 427.191 109.153 425.529 95.4216 424.588C77.9934 423.392 81.5624 427.637 81.5624 427.637C81.5624 427.637 72.1301 426.083 67.3208 428.495C64.3842 429.966 68.8601 431.627 82.337 433.951C95.8138 436.274 100.045 432.235 100.045 432.235C100.045 432.235 113.968 432.495 117.11 429.843Z" fill="#33A86D"/>
<path d="M150.334 442.343C150.334 442.343 135.475 442.093 122.792 444.078C110.109 446.063 114.369 450.323 117.747 450.323C121.125 450.323 67.2322 465.749 82.4495 469.715C97.6667 473.68 120.301 471.882 182.911 468.882C215.493 467.323 231.783 459.646 217.821 456.916C205.31 454.47 173.096 451.402 173.096 451.402C182.406 444.951 150.334 442.343 150.334 442.343Z" fill="#33A86D"/>
<path d="M80.5816 447.75C80.5816 447.75 79.5913 441.465 81.5718 441.465C83.5524 441.465 83.224 445.436 83.224 445.436C83.224 445.436 87.1949 439.48 87.1949 441.799C87.1949 444.112 85.2095 446.098 85.2095 446.098C85.2095 446.098 81.5768 450.068 80.5816 447.75Z" fill="#288453"/>
<path d="M105.025 460.004C105.025 460.004 107.069 451.637 105.025 451.264C102.981 450.892 102.608 455.911 102.608 456.47C102.608 457.029 102.422 448.102 100.936 447.916C99.451 447.73 98.7059 451.264 98.7059 451.264C98.7059 451.264 97.4018 448.661 95.7301 450.705C94.0583 452.749 95.9164 454.24 95.9164 454.24C95.9164 454.24 94.0583 453.867 92.9406 456.097C91.8228 458.328 98.147 460.744 98.147 460.744L95.7301 462.23C95.7301 462.24 101.863 462.426 105.025 460.004Z" fill="#33A86D"/>
<path d="M239.902 456.617C239.902 456.617 238.211 455.21 239.059 453.235C239.902 451.264 241.594 453.514 241.594 453.514C241.594 453.514 243 447.598 244.976 449.005C246.947 450.411 245.256 452.951 245.256 452.951C245.256 452.951 250.33 444.495 252.585 448.161C254.84 451.823 249.486 454.926 249.486 454.926C249.486 454.926 253.433 457.745 251.742 457.745C250.05 457.745 239.059 459.152 237.368 458.588C235.676 458.029 239.902 456.617 239.902 456.617Z" fill="#288453"/>
<path d="M134.43 455.779C122.615 453.357 112.212 457.132 118.267 458.95C118.267 458.95 94.0436 461.475 101.446 464.2C108.849 466.926 141.818 466.22 150.192 465.411C158.565 464.602 161.256 463.794 165.144 460.965C169.032 458.137 146.245 458.2 134.43 455.779Z" fill="#288453"/>
<path d="M120.885 466.945C120.885 466.945 119.987 462.308 121.336 463.357C122.679 464.406 123.125 468.293 120.885 466.945Z" fill="#33A86D"/>
<path d="M143.314 466.387C143.314 466.387 142.417 461.749 143.765 462.798C145.108 463.842 145.554 467.73 143.314 466.387Z" fill="#33A86D"/>
<path d="M118.492 466.347C118.492 466.347 117.595 461.71 118.943 462.759C120.287 463.808 120.733 467.695 118.492 466.347Z" fill="#33A86D"/>
<path d="M72.3112 452.446C72.3112 452.446 67.8892 448.426 70.3012 447.421C72.7132 446.416 72.5122 449.431 72.5122 449.431C72.5122 449.431 72.9142 442.397 74.9242 443.402C76.9342 444.407 75.5272 447.622 75.5272 447.622C75.5272 447.622 76.9342 444.005 77.3362 446.416C77.7382 448.828 75.1252 453.25 72.3112 452.446Z" fill="#288453"/>
<path d="M135.549 390.275V204.876C135.549 204.876 135.549 201.332 139.093 198.293C142.638 195.254 147.197 191.205 147.197 191.205V145.098C147.197 143.368 148.471 141.897 150.182 141.652L157.83 140.559V69.2073C157.83 67.1632 159.419 65.472 161.458 65.3397L174.548 64.5015L178.602 68.6386C178.602 68.6386 298.139 64.5848 302.698 64.5848C307.257 64.5848 364.494 92.4372 369.558 94.9715C374.622 97.5058 371.583 99.0254 372.093 104.594C372.598 110.162 372.598 229.69 372.598 229.69V387.746L135.549 390.275Z" fill="#F7BC4B"/>
<path d="M178.602 68.6386L191.182 82.1874L188.157 200.901L198.045 232.317L197.462 249.189L197.339 254.003L196.883 303.874L285.319 306.198L287.064 191.014L288.8 63.8593L178.602 68.6386Z" fill="#F5894E"/>
<path d="M293.785 73.0749V230.141L333.682 231.464L337.089 183.98L322.656 169.755V77.4621C322.656 77.4621 318.121 60.683 312.042 59.1634C308.429 58.2615 303.63 67.1093 299.114 67.3936C296.114 67.5848 293.785 70.075 293.785 73.0749Z" fill="#CE9436"/>
<path d="M285.794 69.673C285.794 76.1974 285.794 240.175 285.794 240.175H330.588V196.622L310.836 184.975C310.836 184.975 310.836 79.8052 310.836 74.0602C310.836 68.3152 306.532 64.4378 304.228 64.4378C301.924 64.4378 292.56 64.5751 289.623 64.5751C286.682 64.5751 285.794 67.9672 285.794 69.673Z" fill="#CC6D3D"/>
<path d="M288.8 63.8594C288.8 70.3837 288.8 227.548 288.8 227.548H333.594V183.994L313.841 172.348C313.841 172.348 313.841 73.9915 313.841 68.2465C313.841 62.5015 313.013 58.6241 310.709 58.6241C308.405 58.6241 295.57 58.7614 292.629 58.7614C289.687 58.7614 288.8 62.1584 288.8 63.8594Z" fill="#F7BC4B"/>
<path d="M184.676 75.2268V201.837L195.82 208.42V247.42L190.25 254.003L193.29 259.571V322.879L198.354 320.35L200.379 259.571L197.339 254.003L200.379 250.459V200.318L195.231 193.102L191.182 82.1875L184.676 75.2268Z" fill="#CC6D3D"/>
<path d="M233.892 83.8542V89.9717C233.892 90.604 234.407 91.104 235.039 91.0893L271.308 90.055C272.048 90.0354 272.597 89.3246 272.425 88.609L270.969 82.5356C270.847 82.0209 270.386 81.6679 269.852 81.6826L235.039 82.6777C234.407 82.6875 233.892 83.2169 233.892 83.8542Z" fill="#FEED7F"/>
<path d="M269.66 102.52L250.624 103.065C249.796 103.089 249.119 102.432 249.119 101.604V97.3979C249.119 96.5695 249.791 95.8784 250.624 95.8539L269.66 95.3098C270.489 95.2852 271.165 95.9372 271.165 96.7705V100.976C271.165 101.805 270.494 102.496 269.66 102.52Z" fill="#FEED7F"/>
<path d="M225.98 159.466L204.139 160.088C203.09 160.117 202.237 159.289 202.237 158.24V153.632C202.237 152.583 203.09 151.706 204.139 151.676L225.98 151.054C227.029 151.024 227.882 151.853 227.882 152.902V157.51C227.882 158.559 227.029 159.436 225.98 159.466Z" fill="#FEED7F"/>
<path d="M250.227 157.171L242.815 157.382C242.094 157.402 241.51 156.838 241.51 156.117V152.711C241.51 151.99 242.094 151.392 242.815 151.373L250.227 151.162C250.948 151.142 251.531 151.706 251.531 152.426V155.833C251.526 156.549 250.943 157.152 250.227 157.171Z" fill="#FEED7F"/>
<path d="M234.995 175.637L208.747 176.387C207.806 176.411 207.046 175.671 207.046 174.73V170.921C207.046 169.98 207.811 169.196 208.747 169.171L234.995 168.421C235.936 168.397 236.696 169.137 236.696 170.078V173.887C236.701 174.823 235.936 175.607 234.995 175.637Z" fill="#FEED7F"/>
<path d="M252.727 223.455H232.289V231.067H252.727V223.455Z" fill="#FEED7F"/>
<path d="M308.076 64.374L303.492 70.6337L307.316 80.756L306.64 103.859L310.012 115.8L310.464 84.3932L309.787 76.0894L312.037 73.2365C312.042 73.2316 310.101 64.6338 308.076 64.374Z" fill="#FEED7F"/>
<path d="M168.371 118.069L175.582 136.098L170.773 149.323L171.979 173.367V187.789L168.371 185.387L166.566 169.759L168.969 138.505L168.371 118.069Z" fill="#CC6D3D"/>
<path d="M147.731 172.161L146.53 194.401L150.737 204.622L150.134 251.503L151.938 257.513L154.943 204.019L149.535 191.999L147.731 172.161Z" fill="#CE9436"/>
<path d="M185.402 155.333L168.572 186.053L184.603 205.024L183 224.254L198.227 246.694L195.819 208.421L186.206 192.401L185.402 155.333Z" fill="#CC6D3D"/>
<path d="M330.476 75.9915L329.677 112.858L343.301 146.52V176.975L373.76 225.861L372.676 98.295C372.666 97.0303 371.936 95.8832 370.798 95.3391L330.476 75.9915Z" fill="#CE9436"/>
<path d="M189.211 114.863L201.835 120.27L211.453 115.461L239.103 116.064L211.453 118.466L200.629 125.682L187.407 119.069L189.211 114.863Z" fill="#CC6D3D"/>
<path d="M287.196 150.323L292.604 160.544L287.196 167.157V150.323Z" fill="#CC6D3D"/>
<path d="M155.158 264.978L171.258 265.567L179.965 276.258L184.387 308.1L177.965 346.246L160.379 360.207L150.457 330.32L155.158 264.978Z" fill="#4B3355"/>
<path d="M179.965 276.258L169.576 289.762L172.337 308.056L179.205 327.698L184.387 308.1L179.965 276.258Z" fill="#665070"/>
<path d="M409.944 244.381C409.944 244.381 399.306 217.538 396.776 213.994C394.247 210.45 392.722 208.93 381.579 208.425C370.435 207.921 357.772 204.372 357.772 204.372L334.486 215.44L331.436 225.136L341.06 401.888L368.945 414.422L398.404 414.794L404.37 406.446C404.37 406.446 402.85 297.561 402.85 290.468C402.85 283.375 406.395 281.86 408.42 280.341C410.449 278.816 409.944 244.381 409.944 244.381Z" fill="#273252"/>
<path d="M341.295 213.837L355.321 210.229L374.156 219.043C374.156 219.043 380.569 222.651 384.574 221.445C388.579 220.239 394.992 217.837 394.992 217.837L399.399 225.852L406.214 245.886L405.812 270.728L396.595 269.527L386.574 296.375L375.554 266.321L381.564 247.086L371.744 223.445L354.512 214.229L341.295 213.837Z" fill="#3E4C6F"/>
<path d="M68.4482 299.586L80.6064 288.444V242.861L81.3417 228.499C81.5133 225.175 83.4743 222.205 86.4648 220.739L127.204 200.823C127.204 200.823 141.892 203.357 148.986 207.911C156.075 212.469 159.624 220.067 159.624 220.067L161.649 242.856V277.802C161.649 277.802 163.169 279.321 159.624 282.36C156.08 285.4 155.57 286.919 155.57 286.919C155.57 286.919 154.555 289.453 155.065 291.983C155.57 294.517 155.065 380.614 155.065 380.614L133.283 411.52H77.5668L70.9828 386.187L68.4482 299.586Z" fill="#3E4C6F"/>
<path d="M68.4482 299.586L80.6064 288.444V242.861L81.1505 232.273C81.4398 226.616 84.7783 221.562 89.8671 219.077L91.7889 218.136L127.204 200.823L115.213 227.734L122.111 252.439C121.669 254.974 122.395 257.576 124.091 259.513L126.67 262.459C129.675 265.895 130.705 267.679 134.264 264.821L161.649 242.851L160.958 259.106L149.535 268.723L145.927 293.968C145.927 293.968 143.015 334.712 143.525 337.247C143.716 338.207 132.705 332.438 132.705 332.438L121.282 380.609L133.283 411.515H77.5668L70.9828 386.182L68.4482 299.586Z" fill="#273252"/>
<path d="M112.463 256.18L105.251 268.199L118.473 271.204L124.488 272.41L119.679 257.38L112.463 256.18Z" fill="#3E4C6F"/>
<path d="M96.6276 235.621L107.055 230.018L113.267 231.337C114.321 231.41 117.605 249.405 116.875 250.17L111.536 248.969L105.423 245.758C105.334 246.773 103.898 246.886 103.653 245.9L98.5739 255.322L93.0488 255.743L85.999 241.371L96.6276 235.621Z" fill="#48598B"/>
<path d="M88.4159 226.258L100.442 229.062L111.261 222.254L125.689 202.215L99.6376 215.038L86.0137 224.254L88.4159 226.258Z" fill="#48598B"/>
<path d="M377.764 269.135L375.764 288.772L383.775 306.002L385.515 324.433L388.986 338.056L382.574 324.433L380.971 307.605L372.156 288.37L375.563 266.331L377.764 269.135Z" fill="#3E4C6F"/>
<path d="M384.579 325.036L395.399 330.041L399.806 344.869L400.208 351.683L398.605 344.467L393.795 332.448L385.78 329.242L384.579 325.036Z" fill="#3E4C6F"/>
<path d="M341.344 224.557C340.04 223.254 341.78 217.18 344.383 222.097C346.982 227.013 342.643 225.857 341.344 224.557Z" fill="#288453"/>
<path d="M336.657 223.048C334.775 222.033 335.5 216.612 337.525 218.131C338.682 218.999 340.893 220.009 339.26 222.616C338.54 223.773 338.54 224.062 336.657 223.048Z" fill="#288453"/>
<path d="M337.579 218.048C335.554 216.602 335.554 208.21 338.736 210.523C341.922 212.837 339.604 219.494 337.579 218.048Z" fill="#288453"/>
<path d="M341.344 219.783C341.344 219.783 342.79 213.71 344.237 216.891C345.683 220.072 341.344 219.783 341.344 219.783Z" fill="#288453"/>
<path d="M335.691 231.111C335.691 231.111 336.569 225.445 334.118 227.445C331.666 229.445 332.892 232.778 335.691 231.111Z" fill="#288453"/>
<path d="M334.784 217.94C333.887 216.92 330.519 215.989 332.76 219.675C335.309 223.871 335.677 218.96 334.784 217.94Z" fill="#288453"/>
<path d="M336.422 228.606C336.422 228.606 342.785 233.234 341.339 229.763C339.893 226.293 336.711 226.004 336.422 228.606Z" fill="#288453"/>
<path d="M336.133 217.469C336.133 217.469 335.265 208.499 334.108 211.396C332.951 214.293 334.397 218.048 336.133 217.469Z" fill="#288453"/>
<path d="M330.23 219.651C328.181 218.822 325.779 220.891 330.431 222.464C335.079 224.033 332.279 220.479 330.23 219.651Z" fill="#288453"/>
<path d="M36.2683 420.628C33.7337 419.613 28.6695 406.951 31.709 403.917C34.7485 400.878 36.7733 401.383 34.2436 393.28C31.709 385.177 32.2189 342.129 32.2189 324.404C32.2189 306.679 32.2189 290.978 35.2584 283.89C38.2979 276.802 35.2584 269.709 37.2831 266.165C39.3078 262.621 44.8819 260.086 44.8819 260.086C44.8819 260.086 46.4017 243.376 47.4165 240.842C48.4313 238.307 59.0648 234.258 63.1191 234.258C67.1735 234.258 67.1735 236.283 73.7575 243.376C80.3415 250.464 85.4057 254.518 86.9255 257.052C88.4453 259.586 87.9403 262.625 89.4601 266.17C90.9798 269.714 99.5886 303.649 101.108 307.193C102.628 310.737 102.628 309.728 103.133 318.335C103.638 326.943 104.653 356.32 105.158 358.849C105.663 361.384 105.158 363.408 109.212 365.937C113.266 368.472 113.266 373.025 114.276 375.56C115.291 378.094 115.291 387.716 115.291 392.27C115.291 396.824 114.276 415.569 114.786 418.608C115.291 421.647 117.826 425.191 111.242 426.206C104.658 427.221 91.4897 427.725 85.4106 428.23C79.3316 428.735 77.8118 426.206 77.8118 426.206C77.8118 426.206 61.6043 425.191 54.5104 425.191C47.4165 425.191 44.8868 426.711 43.872 424.686C42.8523 422.652 38.8029 421.637 36.2683 420.628Z" fill="#856792"/>
<path d="M73.993 422.74L74.2577 413.657L63.036 400.299L65.1735 381.334L55.8245 374.388L53.4223 361.834L45.9412 350.349C45.9412 350.349 52.3536 329.247 52.0839 327.644C51.8192 326.041 62.2369 322.036 62.2369 322.036L74.2577 336.462L71.5859 350.888L74.2577 365.045L91.6222 413.667L85.4794 413.133L82.8076 425.686L73.993 422.74Z" fill="#665070"/>
<path d="M53.6871 261.12L57.6924 260.052C57.6924 260.052 67.7768 266.331 67.7768 272.341C67.7768 278.351 64.1685 285.566 64.1685 285.566C64.1685 285.566 62.9675 296.385 65.3697 302.997C67.7719 309.61 77.3905 324.634 77.3905 324.634L89.4113 330.644C89.4113 330.644 90.0143 340.261 91.2154 342.065C92.343 343.756 91.8821 351.217 91.8821 351.217C91.8821 351.217 94.8873 355.825 95.0883 353.021C95.2893 350.217 99.0299 348.678 99.0299 348.678L95.4217 339.663L96.0247 328.242L79.7927 321.031L68.973 302.399L68.37 288.576L71.9782 272.346C71.9782 272.346 67.3012 262.062 63.2959 259.258C61.585 258.057 50.7407 259.792 50.7407 259.792L53.6871 261.12Z" fill="#BB83C3"/>
<path d="M93.029 342.663L91.2249 347.673L93.029 384.138C93.029 384.138 95.3675 374.653 96.5686 365.035C97.7697 355.423 93.029 342.663 93.029 342.663Z" fill="#BB83C3"/>
<path d="M33.9153 406.177C33.9153 406.177 38.7246 411.388 41.5288 411.388C44.333 411.388 47.9413 405.378 47.9413 405.378C47.9413 405.378 56.7559 404.976 58.359 404.976C59.9621 404.976 66.3745 410.986 66.3745 410.986L72.787 414.593L69.1788 414.995L64.3694 412.593L57.555 407.785L49.1375 408.187L42.323 415L35.5086 409.79L33.9153 406.177Z" fill="#BB83C3"/>
<path d="M46.338 409.383L42.3326 417.799L43.8671 424.677L39.5235 420.201L38.7244 412.99H41.5286L46.338 409.383Z" fill="#BB83C3"/>
<path d="M62.9722 239.881L58.761 245.763L61.1681 252.949L67.7815 259.483L68.9826 269.934L71.3848 260.135L66.5755 254.258L62.3692 247.072L62.9722 239.881Z" fill="#BB83C3"/>
<path d="M38.3224 281.355C38.3224 281.355 35.3171 303.595 35.9201 309.605C36.5231 315.615 40.7296 321.026 40.7296 324.629C40.7296 328.232 40.1265 341.457 35.3171 349.874C30.5076 358.291 32.9148 329.438 32.9148 329.438L31.7136 303.59C31.7087 303.595 31.7087 281.958 38.3224 281.355Z" fill="#BB83C3"/>
<path d="M42.7301 341.864C37.7197 352.884 35.7146 353.286 38.7247 359.295C41.73 365.305 47.9414 379.932 47.9414 379.932C47.9414 379.932 58.7612 394.359 61.1684 394.957C63.5706 395.559 60.5654 381.133 60.5654 381.133L55.756 382.937L52.7508 380.535L46.1373 358.295L42.5291 352.884L46.7354 337.257L45.9363 321.629L42.9311 327.041L42.7301 341.864Z" fill="#BB83C3"/>
<path d="M51.5492 283.159L48.5439 293.38L51.5492 306.6V315.017L53.9514 306.002L51.5492 293.38L53.9514 278.351L51.5492 283.159Z" fill="#665070"/>
<path d="M51.5493 301.792L57.5597 303.595L65.3741 302.997L58.7608 307.801L51.5493 306.6V301.792Z" fill="#665070"/>
<path d="M53.9517 278.351L46.1372 275.949L42.5339 270.537L37.7246 271.738L40.1268 274.743L44.3331 278.954L53.9517 278.351Z" fill="#665070"/>
<path d="M48.9953 325.732C50.064 327.335 53.8045 328.134 54.6036 325.33C55.4026 322.526 52.2014 321.325 52.2014 321.325C52.2014 321.325 47.9265 324.129 48.9953 325.732Z" fill="#288453"/>
<path d="M49.6618 313.845C49.6618 313.845 48.8627 321.86 53.2703 319.056C57.6778 316.252 52.8682 312.242 49.6618 313.845Z" fill="#33A86D"/>
<path d="M57.6777 322.664C57.6777 322.664 58.4768 328.271 60.482 324.668C62.4871 321.061 60.884 319.056 57.6777 322.664Z" fill="#33A86D"/>
<path d="M53.27 330.276C53.27 330.276 56.8782 321.86 57.2753 325.869C57.6773 329.874 53.27 330.276 53.27 330.276Z" fill="#33A86D"/>
<path d="M183.504 307.566C183.504 307.566 182.97 296.836 186.186 301.664C189.402 306.492 186.72 309.179 186.72 309.179C186.72 309.179 189.941 301.664 193.162 308.105C196.383 314.546 188.333 315.62 188.333 315.62C188.333 315.62 177.602 316.154 177.602 308.105C177.602 300.056 183.504 307.566 183.504 307.566Z" fill="#33A86D"/>
<path d="M80.6603 233.317C80.6603 233.317 74.6351 226.891 74.6351 229.705C74.6351 232.518 78.6502 235.729 78.6502 235.729C78.6502 235.729 73.4291 235.327 74.2331 238.141C75.0371 240.954 79.0522 239.346 79.0522 239.346C79.0522 239.346 83.0674 246.979 85.0774 239.346C87.0874 231.714 82.6654 220.465 80.6603 233.317Z" fill="#33A86D"/>
<path d="M98.0985 252.689C97.1719 249.606 103.467 243.033 103.467 247.322C103.467 251.616 99.7064 258.057 98.0985 252.689Z" fill="#33A86D"/>
<path d="M94.804 261.086C94.804 261.086 99.0691 254.689 100.138 258.596C101.207 262.503 95.8678 267.836 94.804 261.086Z" fill="#33A86D"/>
<path d="M97.5591 278.444C97.5591 278.444 91.6566 268.248 97.5591 269.321C103.467 270.395 101.319 283.277 97.5591 278.444Z" fill="#33A86D"/>
<path d="M103.467 277.909C103.467 277.909 111.516 269.86 110.982 274.689C110.443 279.517 106.148 282.738 103.467 277.909Z" fill="#33A86D"/>
<path d="M94.3431 281.13C94.3431 281.13 86.2932 280.596 90.0485 282.738C93.8038 284.885 99.7064 285.424 94.3431 281.13Z" fill="#33A86D"/>
<path d="M91.1221 274.689C91.1221 274.689 83.6066 273.081 87.9012 275.762C92.1957 278.444 91.1221 274.689 91.1221 274.689Z" fill="#33A86D"/>
<path d="M104.001 290.787C104.001 290.787 105.074 281.13 108.83 283.811C112.59 286.498 110.443 292.399 104.001 290.787Z" fill="#33A86D"/>
<path d="M100.78 296.689C100.78 296.689 94.8773 287.566 100.246 290.787C105.609 294.007 106.682 296.689 100.78 296.689Z" fill="#33A86D"/>
<path d="M102.393 303.13C102.393 303.13 105.614 292.934 108.295 299.909C110.977 306.884 103.466 307.424 102.393 303.13Z" fill="#33A86D"/>
<path d="M104.54 312.252C104.54 312.252 95.4167 303.664 98.6376 308.497C101.854 313.326 104.54 312.252 104.54 312.252Z" fill="#33A86D"/>
<path d="M111.516 307.424C111.516 307.424 104.001 312.791 110.443 311.179C116.88 309.571 115.272 307.958 111.516 307.424Z" fill="#33A86D"/>
<path d="M97.8287 301.787C97.8287 301.787 92.9998 306.615 97.5591 305.277C102.118 303.939 103.197 300.448 97.8287 301.787Z" fill="#33A86D"/>
<path d="M101.319 315.203C101.319 315.203 98.9021 322.982 104.81 320.301C110.707 317.62 109.639 311.178 101.319 315.203Z" fill="#33A86D"/>
<path d="M110.443 319.767C110.443 319.767 113.933 315.208 116.345 317.62C118.757 320.031 103.466 325.938 110.443 319.767Z" fill="#33A86D"/>
<path d="M102.927 322.717C102.927 322.717 91.3867 327.011 100.245 325.668C109.099 324.325 107.222 324.056 102.927 322.717Z" fill="#33A86D"/>
<path d="M105.609 327.012C105.609 327.012 108.026 330.766 111.511 328.355C114.997 325.943 112.32 326.472 105.609 327.012Z" fill="#33A86D"/>
<path d="M115.272 322.448C115.272 322.448 124.126 322.448 118.762 323.791C113.399 325.134 110.708 324.595 115.272 322.448Z" fill="#33A86D"/>
<path d="M101.584 329.154C101.584 329.154 97.5592 334.522 105.075 331.57C112.59 328.619 101.584 329.154 101.584 329.154Z" fill="#33A86D"/>
<path d="M112.854 330.227C112.854 330.227 108.026 336.129 115.806 333.178C123.591 330.227 120.904 328.35 112.854 330.227Z" fill="#33A86D"/>
<path d="M104.001 335.06C104.001 335.06 103.731 338.281 108.026 336.404C112.32 334.521 110.977 333.717 104.001 335.06Z" fill="#33A86D"/>
<path d="M104.805 340.423C104.805 340.423 99.9759 343.104 106.148 342.84C112.32 342.57 104.805 340.423 104.805 340.423Z" fill="#33A86D"/>
<path d="M93.8039 288.375C93.8039 288.375 83.6067 286.498 88.9749 289.179C94.3431 291.86 94.8775 289.713 93.8039 288.375Z" fill="#33A86D"/>
<path d="M99.9759 285.154C99.9759 285.154 91.122 283.811 95.951 286.228C100.78 288.64 102.393 287.301 99.9759 285.154Z" fill="#33A86D"/>
<path d="M109.639 293.738C109.639 293.738 118.493 289.179 115.272 292.934C112.051 296.689 102.658 299.909 109.639 293.738Z" fill="#33A86D"/>
<path d="M81.9986 246.43C81.9986 246.43 71.6251 244.282 75.9147 247.145C80.2043 250.008 85.9353 250.008 81.9986 246.43Z" fill="#33A86D"/>
<path d="M82.3565 251.439C82.3565 251.439 76.9883 258.954 84.5038 256.091C92.0193 253.229 87.3669 250.008 82.3565 251.439Z" fill="#33A86D"/>
<path d="M81.9985 246.43C81.9985 246.43 90.9406 244.283 85.9352 247.861C80.9248 251.439 81.9985 246.43 81.9985 246.43Z" fill="#33A86D"/>
<path d="M87.7198 238.199C87.7198 238.199 81.2779 247.498 89.1513 242.493C97.0247 237.489 93.8038 233.553 87.7198 238.199Z" fill="#33A86D"/>
<path d="M92.7302 243.925C92.7302 243.925 97.7405 245.714 92.0145 247.503C86.2933 249.292 88.0778 248.219 92.7302 243.925Z" fill="#33A86D"/>
<path d="M91.6563 250.366C91.6563 250.366 86.2881 255.376 92.7299 253.229C99.1718 251.081 97.7402 249.65 91.6563 250.366Z" fill="#33A86D"/>
<path d="M88.0776 260.38C88.0776 260.38 78.0619 261.096 85.5724 263.243C93.083 265.39 91.6564 261.812 88.0776 260.38Z" fill="#33A86D"/>
<path d="M89.1514 256.802C89.1514 256.802 95.9512 251.077 94.1618 255.371C92.3724 259.665 87.009 260.022 89.1514 256.802Z" fill="#33A86D"/>
<path d="M95.2499 256.028C95.2499 256.028 103.839 253.881 98.113 256.743C92.3869 259.606 95.2499 256.028 95.2499 256.028Z" fill="#33A86D"/>
<path d="M86.2934 266.464C86.2934 266.464 74.8461 267.537 81.9988 268.969C89.1516 270.395 88.4358 267.895 86.2934 266.464Z" fill="#33A86D"/>
<path d="M80.5671 262.527C80.5671 262.527 73.0517 262.527 76.6305 264.316C80.2093 266.106 84.5038 266.106 80.5671 262.527Z" fill="#33A86D"/>
<path d="M278.916 303.331L192.745 304.198C191.059 304.198 187.269 303.13 187.269 308.139C187.269 313.149 187.304 315.786 187.304 315.786L279.931 315.487L278.916 303.331Z" fill="#4B3355"/>
<path d="M169.17 333.408C169.17 333.408 168.64 332.609 168.469 327.536C168.268 321.624 167.763 319.575 170.072 318.418C172.876 317.017 179.989 316.615 179.989 316.615L272.945 314.267L273.347 321.757V334.418L169.17 333.408Z" fill="#4B3355"/>
<path d="M168.351 320.242C168.351 320.242 167.88 318.365 170.375 317.708C176.312 316.149 179.656 315.081 187.402 314.816C195.148 314.551 273.342 314.669 273.342 314.669V321.757L168.351 320.242Z" fill="#FEED7F"/>
<path d="M169.572 333.35C169.572 333.35 169.371 333.516 163.228 335.252C157.085 336.987 156.35 338.835 156.35 340.859C156.35 342.884 161.762 342.462 161.762 342.462L272.337 344.065V334.021L169.572 333.35Z" fill="#FEED7F"/>
<path d="M158.149 352.761C155.477 352.761 153.741 354.354 149.064 356.756C145.535 358.575 142.922 359.428 142.387 362.364C141.75 365.859 273.347 373.521 273.347 373.521V353.776C273.347 353.776 160.821 352.761 158.149 352.761Z" fill="#FFACFF"/>
<path d="M146.927 359.163C144.422 359.795 143.368 359.374 142.52 360.8C141.838 361.942 141.583 364.183 141.583 365.31C141.583 367.844 141.505 373.53 141.505 373.53H273.342L271.425 360.771C271.425 360.771 218.777 360.07 181.926 359.599L179.484 360.908C179.484 360.908 176.7 359.536 175.778 359.521C159.86 359.305 148.025 358.884 146.927 359.163Z" fill="#4B3355"/>
<path d="M276.406 379.854L129.7 380.663C129.234 380.663 128.901 377.859 130.754 377.143L141.417 373.565C141.475 373.535 141.544 373.521 141.613 373.521H280.112C280.465 373.521 280.676 373.918 280.475 374.212L276.769 379.658C276.685 379.785 276.553 379.854 276.406 379.854Z" fill="#FFACFF"/>
<path d="M127.224 388.682C127.224 388.682 126.621 386.01 126.89 383.408C127.155 380.805 129.562 378.53 129.562 378.53C129.562 377.653 130.685 377.996 131.567 377.996L272.714 378.133C273.592 378.133 274.308 378.844 274.308 379.726V387.893C274.308 388.77 273.597 389.481 272.719 389.486L130.175 389.78C129.293 389.78 127.224 389.559 127.224 388.682Z" fill="#665070"/>
<path d="M128.847 388.643L112.634 395.226L250.526 398.966L281.451 395.226L276.774 389.349L128.847 388.643Z" fill="#FFACFF"/>
<path d="M112.634 395.197C112.634 395.197 110.86 402.706 110.59 404.574C110.325 406.441 112.634 408.721 112.634 408.721H277.396L282.966 394.692L255.933 395.76C255.933 395.76 251.173 397.363 249.923 397.363C245.315 397.363 240.103 394.819 240.103 394.819L112.634 395.197Z" fill="#665070"/>
<path d="M111.57 408.858L103.084 411.079C99.324 412.064 97.7699 412.172 97.7699 416.059L96.7012 419.799C96.7012 424.52 95.1863 428.348 99.9074 428.348H271.381C276.102 428.348 279.931 424.52 279.931 419.799V417.123C279.931 412.402 276.102 408.574 271.381 408.574H113.737C113.007 408.584 112.281 408.677 111.57 408.858Z" fill="#665070"/>
<path d="M112.502 408.618L99.971 411.897C98.966 412.162 98.8974 413.564 99.873 413.927L106.874 416.51C107.035 416.569 114.428 413.417 114.6 413.392L132.156 413.402C132.21 413.397 132.264 413.392 132.318 413.392L217.679 415.383C218.042 415.392 218.38 415.583 218.567 415.897C218.978 416.583 219.969 416.588 220.385 415.907L220.758 415.299C220.949 414.985 221.292 414.794 221.665 414.794H275.499C276.225 414.794 276.739 414.084 276.509 413.392L275.416 410.108C275.273 409.677 274.867 409.383 274.411 409.383L112.776 408.584C112.683 408.584 112.59 408.594 112.502 408.618Z" fill="#FFACFF"/>
<path d="M193.417 302.797C193.417 302.797 186.206 304.733 187.809 305.336C189.412 305.939 205.845 305.6 212.056 306.002C218.268 306.404 274.175 305.6 274.175 305.6C274.175 305.6 276.313 302.797 268.9 302.998C261.478 303.194 193.417 302.797 193.417 302.797Z" fill="#FEED7F"/>
<path d="M170.307 320.026L172.979 320.825L174.312 322.026L183.397 320.693L185.534 321.227L188.74 319.625L170.307 320.026Z" fill="#FEED7F"/>
<path d="M260.336 339.737L257.541 342.065L255.772 339.766L254.213 339.776L253.531 341.002L250.384 339.801L207.845 340.06L204.825 340.977L201.433 341.462L194.618 339.296L158.281 339.124C158.281 339.124 156.345 338.835 156.345 340.859C156.345 342.884 155.609 352.212 157.614 353.413C159.62 354.614 272.332 354.781 272.332 354.781V339.658L260.336 339.737Z" fill="#4B3355"/>
<path d="M183.396 356.889L187.505 361.545C187.505 361.545 194.348 361.08 196.403 361.545C197.805 361.864 217.728 362.094 217.728 362.094L223.097 362.707L229.215 359.957L220.018 357.815L183.396 356.889Z" fill="#FFACFF"/>
<path d="M138.715 377.325L151.339 379.731L155.06 380.614L161.355 380.53L166.566 381.334L176.587 376.124L138.715 377.325Z" fill="#FFACFF"/>
<path d="M193.952 393.888L197.423 397.094L204.904 398.697L208.38 396.829L213.454 397.094L219.332 393.888H193.952Z" fill="#FFACFF"/>
<path d="M158.286 339.124L167.238 339.389L169.375 340.992L168.307 343.928L170.978 347.933V350.869L176.053 350.07L178.455 353.006L156.815 352.472C156.815 352.472 156.016 351.938 156.016 347.663C156.016 343.389 155.477 338.59 158.286 339.124Z" fill="#34283A"/>
<path d="M127.224 388.682C127.224 388.682 124.484 384.275 129.562 378.53L132.499 378.128L132.234 382.403L135.548 386.638C135.637 386.658 135.72 386.604 135.74 386.515L135.975 385.339L146.662 383.202L147.731 385.873L145.863 388.545L127.224 388.682Z" fill="#4B3355"/>
<path d="M149.937 366.109L151.942 368.712L152.442 371.016L156.251 371.114L158.153 373.119L158.555 373.418H145.329L141.613 373.526L141.421 369.011C141.421 369.011 141.421 362.697 141.72 362.099C142.019 361.501 143.225 359.996 143.225 359.996L147.231 358.893L150.437 360.496L149.937 366.109Z" fill="#34283A"/>
<path d="M117.404 413.525L118.875 419.402L123.282 420.201L125.288 424.211L129.563 428.348H108.188L108.859 424.343L105.516 421.27L107.389 416.731L114.6 413.392L117.404 413.525Z" fill="#4B3355"/>
<path d="M154.678 413.927L154.344 416.995L157.614 419.535L163.159 418.397L167.503 422.206L173.552 414.343L154.678 413.927Z" fill="#4B3355"/>
<path d="M130.631 413.123L131.7 414.726L135.171 412.324L138.912 414.726H144.255C144.255 414.726 144.52 416.863 145.324 417.128C146.128 417.392 151.202 412.589 151.202 412.589L131.166 410.187L130.631 413.123Z" fill="#FFACFF"/>
<path d="M240.172 377.06L241.775 379.731L247.119 379.996L253.261 378.393L255.933 379.731L257.806 377.06H240.172Z" fill="#FFACFF"/>
<path d="M183.504 307.566C183.504 307.566 182.97 296.836 186.186 301.664C189.402 306.492 186.72 309.179 186.72 309.179C186.72 309.179 189.941 301.664 193.162 308.105C196.383 314.546 188.333 315.62 188.333 315.62C188.333 315.62 177.602 316.154 177.602 308.105C177.602 300.056 183.504 307.566 183.504 307.566Z" fill="#33A86D"/>
<path d="M269.008 345.673C269.008 345.673 269.008 329.972 269.008 324.404C269.008 318.835 272.047 315.355 272.047 315.355C272.047 315.355 272.322 304.066 272.567 301.497C272.866 298.292 279.715 292.115 279.715 292.115L281.166 284.101V221.082C281.166 221.082 279.646 217.028 279.141 216.019C278.636 215.004 279.141 210.45 279.141 210.45C279.141 210.45 293.324 204.372 294.844 204.372C296.364 204.372 325.234 212.474 325.234 212.474C325.234 212.474 341.947 232.224 342.457 235.263C342.962 238.302 342.457 260.586 342.457 260.586L356.326 266.929L363.537 285.561C363.537 285.561 368.283 315.281 370.313 315.786C372.337 316.291 378.921 335.031 379.431 338.07C381.064 347.869 383.981 339.732 383.981 369.472L391.192 380.614L394.197 418.466L373.357 433.025L280.784 431.554L272.557 428.618L269.008 345.673Z" fill="#665070"/>
<path d="M321.209 264.326L333.456 270.336L335.147 276.748L339.795 282.356L343.594 292.375L343.687 299.988L362.537 304.394L362.939 309.002C362.939 309.002 361.738 325.629 361.738 328.835C361.738 332.041 360.797 357.486 360.797 357.486L367.552 375.118L360.797 428.814L276.866 422.201L275.175 364.099L281.509 309.605L290.799 303.193L295.025 271.135L306.007 258.312L321.209 264.326Z" fill="#856792"/>
<path d="M267.155 356.09C267.155 356.09 268.557 341.502 268.557 334.654C268.557 332.737 269.008 325.619 269.008 324.404C269.008 322.37 269.415 320.615 269.93 319.203C270.822 316.757 272.048 315.355 272.048 315.355C272.048 315.355 272.459 302.649 272.567 301.497C272.866 298.292 279.715 292.115 279.715 292.115L286.662 295.321L287.731 290.248L281.166 275.821V221.082C281.166 221.082 279.646 217.028 279.141 216.019C278.636 215.004 279.141 210.45 279.141 210.45C279.141 210.45 293.324 204.372 294.844 204.372C296.364 204.372 295.614 245.895 295.614 245.895C295.614 245.895 322.759 253.077 323.264 256.116C323.769 259.155 297.016 346.276 297.016 346.276L266.758 381.339L267.155 356.09Z" fill="#856792"/>
<path d="M284.789 304.796L287.593 284.762L304.208 268.733L325.666 270.336C325.666 270.336 329.073 273.415 329.578 276.959C330.083 280.503 336.887 287.968 336.887 287.968C336.887 287.968 338.172 296.792 339.29 304.086C339.554 305.821 355.988 308.492 356.522 309.007C360.179 312.512 357.321 338.193 357.321 340.864C357.321 343.536 376.053 359.168 376.558 361.702C377.063 364.237 381.196 375.555 381.196 375.555C381.196 375.555 372.553 429.696 372.553 432.226C372.553 434.755 281.98 431.623 281.98 431.623V312.811L284.789 304.796Z" fill="#1D2538"/>
<path d="M297.981 253.405L302.408 246.984L295.746 245.542L297.981 253.405Z" fill="#665070"/>
<path d="M296.815 215.239L291.402 220.048L298.016 226.058L296.815 215.239Z" fill="#665070"/>
<path d="M322.862 217.043L326.47 235.474C326.47 235.474 331.681 244.689 334.887 248.699C338.094 252.704 337.692 264.326 337.692 264.326L345.707 269.537L335.289 265.929C335.289 265.929 334.887 252.704 333.686 250.704C332.485 248.699 326.872 240.685 324.872 238.283C322.862 235.876 322.862 217.043 322.862 217.043Z" fill="#4B3355"/>
<path d="M284.23 332.816C284.23 332.816 278.328 332.605 275.092 332.958C271.592 333.34 269.189 333.801 265.674 339.565C262.659 344.511 261.316 349.266 260.473 351.232C259.63 353.197 259.909 354.325 262.439 356.575C264.968 358.825 279.872 366.133 287.74 357.982C295.614 349.83 294.486 339.428 291.956 336.899C289.427 334.369 284.23 332.816 284.23 332.816Z" fill="#665070"/>
<path d="M302.786 319.732C299.271 317.345 287.995 316.816 282.789 318.419C274.038 321.11 273.974 326.031 271.969 331.242C270.533 334.972 272.641 340.394 275.46 341.487C278.279 342.575 288.584 342.374 292.109 339.83C295.633 337.286 306.301 322.124 302.786 319.732Z" fill="#665070"/>
<path d="M295.055 318.889C295.055 318.889 289.599 318.418 295.614 322.83L288.04 333.82C288.04 333.82 282.995 336.149 281.446 340.026C279.897 343.903 282.887 353.859 282.686 355.437C281.843 362.182 273.126 388.045 275.377 397.324C277.627 406.598 296.462 399.574 317.268 402.667C338.074 405.76 373.499 399.574 378.559 398.451C383.618 397.329 379.284 378.02 377.294 373.29C372.793 362.609 374.058 356.565 371.813 347.849C369.563 339.134 373.784 334.129 362.258 327.1C350.723 320.07 306.581 315.237 295.055 318.889Z" fill="#856792"/>
<path d="M330.446 313.394C330.446 313.394 337.608 313.487 344.09 315.085C345.869 315.522 350.071 314.188 351.909 314.688C359.184 316.669 365.484 320.502 366.391 322.443C368.357 326.659 371.171 343.247 368.641 345.497C366.111 347.746 363.096 350.658 358.032 350.658C352.968 350.658 344.536 349.815 343.413 345.315C342.285 340.815 320.607 325.762 330.446 313.394Z" fill="#856792"/>
<path d="M287.603 357.683L282.681 352.34C273.685 351.776 268.341 352.619 264.689 355.433C261.032 358.241 258.502 363.442 257.659 370.751C256.816 378.06 256.816 383.118 264.405 388.461C271.994 393.804 273.964 392.677 282.117 395.206C290.27 397.736 304.021 394.951 304.021 394.951L305.625 390.545L306.424 382.932C306.424 382.932 305.056 375.849 305.223 373.717C305.365 371.883 300.668 365.55 297.859 365.271C295.05 364.991 289.706 364.428 287.456 363.584L287.603 357.683Z" fill="#856792"/>
<path d="M293.658 370.06H297.153C297.153 370.06 296.781 368.109 302.766 367.722C308.757 367.33 308.787 371.442 308.787 371.442C308.787 371.442 309.272 375.315 310.346 379.653C311.135 382.854 310.63 386.074 310.63 388.02C310.63 392.608 308.007 396.951 304.262 398.118C301.511 398.976 295.467 397.54 292.31 394.398C291.172 393.265 290.412 391.912 290.314 390.363C290.152 387.868 291.388 384.452 291.383 381.462C291.383 380.315 290.089 379.462 290.103 378.403C290.152 375.751 290.255 373.511 290.412 372.393C290.79 369.668 293.658 370.06 293.658 370.06Z" fill="#665070"/>
<path d="M293.217 371.521H297.55C297.55 371.521 297.521 369.604 299.497 369.398C306.924 369.045 305.997 372.584 305.997 372.584C305.997 372.584 307.919 375.418 308.895 380.236C309.507 383.241 309.537 386.055 309.537 387.824C309.537 391.991 305.997 395.947 301.355 397.005C297.943 397.785 295.462 396.481 291.55 393.628C290.143 392.599 289.197 391.368 289.074 389.966C288.878 387.702 290.403 384.599 290.398 381.883C290.398 380.839 288.79 380.07 288.814 379.104C288.873 376.692 289.005 374.663 289.197 373.648C289.657 371.168 293.217 371.521 293.217 371.521Z" fill="#856792"/>
<path d="M382.079 401.961C382.079 410.814 383.221 421.848 382.079 424.417C380.936 426.985 379.873 429.206 374.161 431.823C367.317 434.96 362.969 432.686 357.831 434.686C352.693 436.686 344.996 436.112 335.294 435.828C325.597 435.544 325.024 432.975 320.744 434.97C316.464 436.965 307.909 438.107 307.62 430.407C307.336 422.706 307.051 406.162 307.904 401.883C308.762 397.603 312.037 398.015 316.033 397.746C320.313 397.461 326.446 399.03 326.446 399.03C335.814 395.226 348.105 395.76 348.105 395.76C348.105 395.76 355.257 393.898 360.964 392.187C366.67 390.476 366.097 390.476 368.381 388.765C370.666 387.05 382.079 393.103 382.079 401.961Z" fill="#665070"/>
<path d="M268.204 385.515C268.204 385.515 254.404 390.187 250.408 392.756C246.413 395.324 244.702 397.319 244.702 404.162C244.702 411.005 245.56 416.427 245.56 419.279C245.56 422.132 250.408 426.98 253.546 430.686C256.683 434.392 258.679 432.966 265.527 433.823C272.376 434.681 273.798 432.397 278.936 432.966C284.069 433.534 292.06 431.823 292.06 431.823C292.06 431.823 293.77 434.103 298.619 434.676C303.468 435.245 299.761 435.245 304.61 434.961C309.458 434.676 312.312 433.25 312.027 420.985C311.743 408.721 314.596 403.873 310.032 400.451C305.468 397.03 304.326 396.746 300.046 396.456C295.766 396.167 295.021 397.486 291.883 396.917C288.745 396.349 275.337 393.78 273.342 390.927C271.342 388.084 273.053 387.226 268.204 385.515Z" fill="#665070"/>
<path d="M339.349 317.909C339.349 317.909 341.55 328.286 344.383 332.693C347.217 337.1 347.286 338.031 353.262 338.977C359.238 339.918 363.013 338.663 363.013 338.663C363.013 338.663 364.709 341.737 357.635 341.575C350.556 341.418 343.952 339.845 342.692 338.904C341.432 337.962 340.608 330.492 339.349 325.933C338.089 321.374 339.349 317.909 339.349 317.909Z" fill="#665070"/>
<path d="M361.125 364.187C361.125 364.187 357.983 362.79 356.341 362.884C354.698 362.977 351.419 367.54 350.463 369.271C349.507 371.001 350.727 381.025 350.727 382.815C350.727 384.604 350.051 385.756 352.512 386.712C354.973 387.667 358.39 386.496 359.076 386.54C359.758 386.584 361.812 384.726 360.719 384.457C359.625 384.187 354.978 385.481 354.022 385.02C353.066 384.56 352.379 381.731 352.379 381.731C352.379 381.731 351.698 375.521 351.968 373.55C352.237 371.579 353.335 369.462 353.335 369.462C353.335 369.462 355.247 364.81 356.346 364.884C357.434 364.947 361.125 364.187 361.125 364.187Z" fill="#665070"/>
<path d="M348.913 396.961L340.162 403.647C340.162 403.647 336.338 417.985 337.035 421.358C337.731 424.73 341.903 429.368 341.903 429.368L355.115 434.005C355.115 434.005 359.983 434.426 363.111 431.475C366.239 428.524 364.851 421.775 364.851 421.775C364.851 421.775 363.052 399.236 361.14 397.76C359.228 396.285 348.913 396.961 348.913 396.961Z" fill="#856792"/>
<path d="M316.454 398.584C316.454 398.584 308.772 396.054 308.409 398.162C308.047 400.27 306.948 411.236 307.679 414.187C308.409 417.137 309.14 418.824 309.14 418.824L307.679 422.196C307.679 422.196 307.723 435.137 310.076 435.622C312.434 436.113 317.92 430.627 317.92 430.627L320.116 423.461C320.116 423.461 320.847 402.378 319.749 401.113C318.65 399.849 316.454 398.584 316.454 398.584Z" fill="#856792"/>
<path d="M368.43 364.599C368.43 364.599 370.538 368.486 370.96 373.143C371.381 377.8 370.077 382.442 367.165 386.045C361.733 392.765 361.155 392.295 361.155 392.295C361.155 392.295 349.977 394.329 346.604 392.917L360.522 388.893C360.522 388.893 368.719 381.623 368.719 380.359C368.719 379.094 367.945 368.467 367.945 368.467L368.43 364.599Z" fill="#665070"/>
<path d="M300.531 305.87C300.531 305.87 301.301 308.688 300.658 310.36C300.016 312.027 297.771 311.708 295.977 311.708C294.182 311.708 292.579 311.517 291.682 310.747C290.785 309.978 289.486 305.718 290.143 304.723C290.8 303.728 292.962 304.081 295.658 304.468C298.354 304.855 300.531 305.87 300.531 305.87Z" fill="#856792"/>
<path d="M331.397 316.688C331.397 316.688 331.774 304.752 330.451 301.345C329.122 297.934 329.122 298.316 325.524 295.85C321.925 293.39 321.356 293.767 321.165 292.252C320.974 290.738 319.837 289.978 312.262 289.978C304.683 289.978 297.104 290.738 295.403 292.252C293.702 293.767 291.726 299.909 291.726 299.909C291.726 299.909 290.206 306.404 291.608 315.742C291.628 318.306 292.01 321.698 292.01 321.698L290.942 322.232C290.942 322.232 291.495 332.605 292.064 334.497C292.633 336.389 292.255 338.477 303.433 337.717C314.611 336.957 322.759 336.389 324.651 332.791C326.543 329.193 328.347 326.703 328.347 326.703C328.347 326.703 331.813 321.762 331.397 316.688Z" fill="#856792"/>
<path d="M307.527 307.983C307.527 307.983 309.042 311.267 310.052 312.277C311.062 313.286 318.641 313.541 318.641 313.541C318.641 313.541 314.601 314.046 312.071 314.046C309.547 314.046 308.537 313.036 308.537 313.036L307.527 307.983Z" fill="#665070"/>
<path d="M299.619 308.071C298.016 306.267 291.103 305.698 291 306.953C290.902 308.203 291.956 311.58 293.138 311.879C294.192 312.144 299.134 312.6 299.482 311.615C299.766 310.811 301.222 309.875 299.619 308.071Z" fill="#665070"/>
<path d="M322.048 303.081L330.828 303.11L330.779 304.497L324.955 305.889C324.955 305.889 323.563 309.375 323.063 310.247C321.063 313.713 308.841 311.208 308.841 311.208L307.841 308.806L322.048 303.081Z" fill="#665070"/>
<path d="M290.868 321.963C290.868 321.963 291.491 326.159 292.628 329.948C293.766 333.737 294.138 335.57 296.795 335.761C299.448 335.953 310.38 335.874 317.391 335.119C324.401 334.36 325.793 331.085 326.931 328.624C328.068 326.164 328.637 322.943 328.637 322.943C328.637 322.943 329.583 324.649 329.014 326.541C328.446 328.433 328.931 334.742 324.004 335.688C320.754 336.31 303.286 337.913 296.418 337.658C291.305 337.467 291.496 335.065 291.118 329.762C290.731 324.453 290.868 321.963 290.868 321.963Z" fill="#665070"/>
<path d="M306.958 306.017C306.958 306.017 307.59 309.679 309.36 310.561C311.13 311.443 316.684 311.321 319.337 311.193C321.989 311.066 321.611 311.321 321.861 309.174C322.116 307.027 322.621 302.228 321.356 301.595C320.092 300.963 309.86 303.997 306.958 306.017Z" fill="#34283A"/>
<path d="M299.6 307.159C299.6 307.159 300.168 309.242 299.693 310.473C299.217 311.703 297.565 311.468 296.236 311.468C294.913 311.468 293.726 311.326 293.065 310.757C292.403 310.188 291.442 307.046 291.927 306.311C292.413 305.576 294.011 305.836 295.996 306.12C297.992 306.399 299.6 307.159 299.6 307.159Z" fill="#34283A"/>
<path d="M331.711 301.596C331.711 301.596 331.544 303.87 329.622 303.87C327.7 303.87 322.592 302.292 318.94 303.429C315.287 304.566 309.473 307.929 307.36 307.929C305.247 307.929 301.257 307.978 299.908 307.978C298.56 307.978 297.795 306.463 294.525 306.272C291.255 306.081 289.603 306.542 289.299 306.105C288.721 303.831 288.951 299.645 290.682 298.13C292.412 296.615 288.388 289.924 300.678 288.468C323.058 285.816 322.666 289.797 323.818 290.929C324.97 292.066 327.298 291.988 328.681 292.762C331.838 294.522 331.711 298.566 331.711 301.596Z" fill="#856792"/>
<path d="M292.402 304.399C287.593 303.997 288.951 299.639 290.682 298.125C292.412 296.61 288.387 289.919 300.678 288.463C323.058 285.811 322.665 289.792 323.817 290.924C324.572 291.669 317.126 294.777 312.988 297.492C308.85 300.208 307.728 298.242 306.522 299.041C305.32 299.84 299.06 297.88 299.614 297.983C299.619 297.988 294.486 304.571 292.402 304.399Z" fill="#665070"/>
<path d="M292.383 314.301L292.76 321.438L290.907 321.972L290.976 323.183C290.976 323.183 311.179 321.879 319.136 323.771L317.621 321.879C317.621 321.879 305.453 320.173 294.589 321.061L293.515 319.355L292.383 314.301Z" fill="#665070"/>
<path d="M299.658 307.973C299.658 307.973 301.904 308.414 302.222 308.414C302.536 308.414 303.928 308.223 303.928 308.223L307.782 307.909L307.404 308.478L303.992 309.551L301.59 309.615L299.879 309.321L299.658 307.973Z" fill="#665070"/>
<path d="M331.5 312.375C331.5 312.375 331.549 319.85 330.808 321.556C329.544 324.659 328.47 325.899 328.47 325.899L328.725 323.419C328.725 323.419 330.426 321.556 330.681 320.629C330.931 319.698 331.5 312.375 331.5 312.375Z" fill="#665070"/>
<path d="M293.315 293.007C293.315 293.007 295.589 297.174 297.295 297.934C299.001 298.694 303.36 297.556 303.36 297.556C303.36 297.556 297.487 300.586 296.349 299.831C295.212 299.071 293.315 293.007 293.315 293.007Z" fill="#856792"/>
<path d="M262.703 357.207C262.703 357.207 266.341 355.526 270.842 353.992C275.342 352.457 277.308 352.183 277.308 352.183C277.308 352.183 274.636 350.1 269.807 352.31C266.699 353.732 264.841 354.075 262.703 357.207Z" fill="#856792"/>
<path d="M264.831 370.756L265.253 382.354L269.68 391.839C269.68 391.839 262.723 384.883 262.723 382.986C262.723 381.089 264.831 370.756 264.831 370.756Z" fill="#665070"/>
<path d="M316.744 367.045L321.244 364.482L330.245 365.58L333.824 367.839L334.868 367.888L327.911 363.491L318.91 362.393L314.41 364.957L314.665 368.815L317.126 368.467L316.744 367.045Z" fill="#665070"/>
<path d="M313.895 368.187L309.63 367.746C309.375 367.722 309.14 367.874 309.057 368.114L307.277 373.383C307.194 373.633 307.297 373.903 307.527 374.035L309.238 375.001C309.611 375.212 309.611 375.746 309.238 375.952L308.375 376.432C308.194 376.535 308.086 376.731 308.096 376.942L308.87 390.226C308.875 390.324 308.905 390.417 308.958 390.496L313.042 396.652C313.131 396.785 313.268 396.873 313.425 396.893L322.053 398.045C322.146 398.059 322.244 398.045 322.332 398.01L327.583 395.853C328.132 395.628 327.98 394.819 327.387 394.804L314.802 394.505C314.582 394.501 314.386 394.363 314.307 394.157L312.528 389.623C312.474 389.481 312.361 389.368 312.219 389.314L310.022 388.457C309.807 388.373 309.664 388.158 309.674 387.927L309.777 385.506C309.787 385.334 309.875 385.172 310.017 385.079L310.341 384.373C310.65 384.163 310.66 383.716 310.366 383.491L309.728 382.442C309.601 382.344 309.522 382.192 309.517 382.03L309.405 379.089C309.4 378.952 309.449 378.815 309.537 378.712L311.263 376.712C311.449 376.496 311.439 376.177 311.238 375.976L309.086 373.766C308.919 373.594 308.885 373.329 308.998 373.119L310.571 370.276C310.645 370.143 310.772 370.045 310.919 370.011L313.969 369.266C314.567 369.114 314.503 368.251 313.895 368.187Z" fill="#665070"/>
<path d="M251.791 399.079C254.399 397.584 263.64 397.599 265.861 399.079C268.081 400.559 264.351 412.388 264.351 412.388C264.351 412.388 273.121 427.186 270.9 429.407C268.679 431.627 255.35 426.446 252.756 423.853C250.163 421.26 247.888 408.177 248.829 405C249.707 402.04 249.182 400.574 251.791 399.079Z" fill="#856792"/>
<path d="M269.047 395.633L275.372 400.275L288.726 400.133L275.372 397.319L269.047 395.633Z" fill="#856792"/>
<path d="M359.464 361.834L340.53 365.364L334.838 368.726L340.128 363.359L352.546 359.79L359.464 361.834Z" fill="#665070"/>
<path d="M347.149 338.085L342.04 345.467C342.04 345.467 341.472 360.795 345.448 362.501C345.448 362.501 348.286 355.687 348.855 352.281C349.423 348.874 349.423 348.119 350.37 346.413C351.316 344.712 352.831 339.791 352.831 339.791L347.149 338.085Z" fill="#665070"/>
<path d="M304.585 350.369C304.585 350.369 303.291 358.903 303.551 362.521C303.811 366.138 308.983 370.535 308.983 370.535C308.983 370.535 306.139 366.398 306.139 361.746C306.139 357.094 304.585 350.369 304.585 350.369Z" fill="#665070"/>
<path d="M303.423 337.717C303.423 337.717 309.365 344.296 314.022 344.296C318.68 344.296 325.661 335.374 325.661 335.374L303.423 337.717Z" fill="#665070"/>
<path d="M325.661 396.069C325.661 396.069 335.746 392.192 336.52 391.417C337.295 390.643 336.52 382.883 336.52 382.883C336.52 382.883 340.981 390.251 338.461 392.966C335.942 395.682 325.661 396.069 325.661 396.069Z" fill="#665070"/>
<path d="M368.974 342.095C368.974 342.095 370.524 346.492 371.303 353.472C372.078 360.452 367.425 368.986 367.425 368.986C367.425 368.986 374.146 365.624 373.632 355.8C373.112 345.972 368.974 342.095 368.974 342.095Z" fill="#665070"/>
<path d="M281.441 385.212C281.245 386.957 285.451 390.707 285.451 390.707L284.157 385.697L284.642 381.045C284.642 381.04 281.637 383.462 281.441 385.212Z" fill="#665070"/>
<path d="M267.866 389.961C267.866 389.961 270.449 392.515 272.778 393.55C275.107 394.584 285.191 395.358 285.191 395.358C286.177 395.618 277.901 396.059 272.263 394.584C271.229 394.314 270.449 393.579 267.866 389.961Z" fill="#665070"/>
<path d="M271.744 333.433C271.744 333.433 275.577 331.213 277.818 331.129C280.053 331.046 280.377 332.752 280.377 332.752C280.377 332.752 278.244 331.977 276.597 332.168C273.95 332.482 271.744 333.433 271.744 333.433Z" fill="#856792"/>
<path d="M288.035 362.986C288.035 362.986 283.583 360.933 280.848 360.933C278.112 360.933 273.489 365.04 273.489 365.04C273.489 365.04 280.848 363.158 282.387 363.33C283.926 363.501 288.035 362.986 288.035 362.986Z" fill="#665070"/>
<path d="M302.968 368.726C302.968 367.952 300.06 365.364 297.732 365.364C295.403 365.364 294.986 365.525 293.207 366.138C291.334 366.785 290.104 367.687 289.589 368.467C289.589 368.467 289.589 364.849 293.726 364.329C297.864 363.815 297.516 363.374 299.026 363.815C300.575 364.266 302.968 368.726 302.968 368.726Z" fill="#665070"/>
<path d="M280.47 363.491C280.47 363.491 288.035 363.687 290.751 366.207C290.751 366.207 293.496 364.374 290.751 363.491C285.319 361.746 280.47 363.491 280.47 363.491Z" fill="#665070"/>
<path d="M45.2203 422.755L45.9361 415.579L21.5316 398.353L7.17721 404.809L0 415.579L12.918 425.622L45.2203 422.755Z" fill="#665070"/>
<path d="M12.918 425.622L25.1202 424.191L14.8349 416.054L21.5316 398.353L7.17721 404.809L7.89297 411.27L0 415.579L12.918 425.622Z" fill="#4B3355"/>
<path d="M352.884 439.005L345.506 427.044L337.133 430.23L333.446 439.495L338.138 440.323L344.977 442.063L352.884 439.005Z" fill="#4B3355"/>
<path d="M345.31 427.142L346.109 432.823L342.918 436.014L342.619 439.603L344.913 441.794C349.899 441.397 352.889 439 352.889 439L353.286 433.215L345.31 427.142Z" fill="#665070"/>
<path d="M335.285 442.24L336.888 435.828L329.142 433.157L324.063 438.235L327.803 441.705L335.285 442.24Z" fill="#4B3355"/>
<path d="M335.285 442.24L331.01 436.362L327.004 438.235L327.803 441.705L335.285 442.24Z" fill="#665070"/>
<path d="M279.578 350.08C279.578 350.08 279.578 344.07 282.784 345.673C285.991 347.276 284.387 351.683 284.387 351.683C284.387 351.683 287.996 349.281 288.795 352.482C289.594 355.688 286.393 354.487 286.393 354.487L279.578 350.08Z" fill="#33A86D"/>
<path d="M271.964 352.884C271.964 352.884 269.959 349.276 273.165 349.678C276.372 350.08 273.969 353.286 271.964 352.884Z" fill="#33A86D"/>
<path d="M280.382 355.285C280.382 355.285 275.573 349.276 274.774 353.683C273.97 358.094 278.377 359.295 280.382 355.285Z" fill="#288453"/>
<path d="M279.98 360.094C279.98 360.094 279.181 350.477 282.784 352.481C286.392 354.486 283.99 361.3 279.98 360.094Z" fill="#288453"/>
<path d="M277.975 364.506C277.975 364.506 269.16 367.712 275.573 368.511C281.985 369.315 277.975 364.506 277.975 364.506Z" fill="#288453"/>
<path d="M249.202 428.667C249.202 428.667 247.531 422.77 249.737 422.995C251.943 423.221 250.894 427.745 250.894 427.745C250.894 427.745 254.924 420.829 255.781 425.632C256.639 430.436 255.409 432.206 255.409 432.206C255.409 432.206 258.12 428.314 259.399 430.255C260.674 432.196 258.963 433.554 258.963 433.554C258.963 433.554 256.164 436.411 254.041 434.931C251.918 433.451 251.918 433.451 251.918 433.451C251.918 433.451 250.085 435.328 246.329 431.662C242.579 427.99 243.113 422.319 249.202 428.667Z" fill="#33A86D"/>
<path d="M96.4316 427.417C96.4316 427.417 95.2305 419.402 99.2359 420.603C103.241 421.804 101.241 425.01 101.241 425.01C101.241 425.01 106.05 423.809 104.045 428.216C102.04 432.622 100.04 432.622 100.04 432.622C100.04 432.622 94.4314 435.828 92.4263 428.618C90.4212 421.407 96.4316 427.417 96.4316 427.417Z" fill="#33A86D"/>
<path d="M78.8025 427.417C78.8025 427.417 76.4003 422.206 78.8025 421.407C81.2047 420.608 81.2047 424.613 81.2047 424.613C81.2047 424.613 84.0089 419.402 84.8129 423.412C85.612 427.417 84.0089 432.622 78.8025 427.417Z" fill="#33A86D"/>
<path d="M80.0034 413.392C80.0034 413.392 80.0034 418.201 82.4056 416.598C84.8127 414.995 86.0138 408.584 80.0034 413.392Z" fill="#33A86D"/>
<path d="M67.9775 414.191C67.9775 414.191 66.7764 419.402 69.1786 419C71.5808 418.598 72.3848 418.201 71.5808 415.794C70.7866 413.392 67.9775 414.191 67.9775 414.191Z" fill="#33A86D"/>
<path d="M65.5754 408.182C65.5754 408.182 66.7765 412.99 69.1837 410.187C71.5859 407.378 68.3796 404.976 65.5754 408.182Z" fill="#33A86D"/>
<path d="M71.9883 410.584C71.9883 410.584 73.5913 414.191 75.1943 413.789C76.7972 413.388 77.1992 406.177 71.9883 410.584Z" fill="#33A86D"/>
<path d="M68.7817 405.378C68.7817 405.378 69.1837 411.789 72.7871 407.78C76.3904 403.77 72.39 402.569 68.7817 405.378Z" fill="#33A86D"/>
<path d="M68.3801 400.167C68.3801 400.167 67.9781 404.976 70.7821 402.172C73.591 399.363 71.586 395.358 68.3801 400.167Z" fill="#33A86D"/>
<path d="M356.924 369.712C356.924 369.712 357.527 361.898 362.336 364.903C367.146 367.908 359.331 372.118 356.924 369.712Z" fill="#33A86D"/>
<path d="M358.728 372.717C358.728 372.717 350.178 378.192 359.797 375.256C369.416 372.319 368.082 371.251 358.728 372.717Z" fill="#33A86D"/>
<path d="M360.601 377.663C360.601 377.663 361.67 386.476 363.807 381.403C365.945 376.324 365.141 376.859 360.601 377.663Z" fill="#33A86D"/>
<path d="M358.998 377.927C358.998 377.927 351.252 379.53 357.664 380.329C364.072 381.133 358.998 377.927 358.998 377.927Z" fill="#33A86D"/>
<path d="M359.797 390.481C359.797 390.481 366.21 386.741 360.866 386.741C355.522 386.741 353.385 390.481 359.797 390.481Z" fill="#33A86D"/>
<path d="M366.008 355.423C366.008 355.423 364.94 361.834 369.749 358.359C374.558 354.889 371.622 353.55 366.008 355.423Z" fill="#33A86D"/>
<path d="M374.828 346.874C374.828 346.874 367.616 349.545 372.426 350.08C377.23 350.614 376.431 347.139 374.828 346.874Z" fill="#33A86D"/>
<path d="M370.283 340.462C370.283 340.462 369.484 346.874 373.22 343.668C376.965 340.462 375.093 340.462 370.283 340.462Z" fill="#33A86D"/>
<path d="M368.416 343.668C368.416 343.668 363.876 343.134 367.616 344.737C371.352 346.34 368.416 343.668 368.416 343.668Z" fill="#33A86D"/>
<path d="M368.146 336.987C368.146 336.987 375.627 340.727 372.686 336.987C369.749 333.247 363.871 332.982 368.146 336.987Z" fill="#33A86D"/>
<path d="M371.887 426.211C371.887 426.211 370.818 431.284 374.289 429.951C377.76 428.618 376.691 425.946 375.357 425.676C374.024 425.407 371.887 426.211 371.887 426.211Z" fill="#33A86D"/>
<path d="M371.887 422.74C371.887 422.74 375.357 414.461 374.558 420.069C373.759 425.677 371.887 422.74 371.887 422.74Z" fill="#33A86D"/>
<path d="M370.283 424.613C370.283 424.613 361.734 414.196 365.744 415.265C369.749 416.333 369.484 419.539 369.484 419.539C369.484 419.539 370.283 408.319 371.887 412.593C373.49 416.868 370.283 424.613 370.283 424.613Z" fill="#33A86D"/>
<path d="M377.235 418.392C377.235 418.392 383.059 414.211 382.226 417.75C381.393 421.289 376.402 419.682 377.235 418.392Z" fill="#33A86D"/>
<path d="M381.505 427.814C381.505 427.814 381.24 420.868 379.103 420.868C376.966 420.868 379.103 428.882 381.505 427.814Z" fill="#33A86D"/>
<path d="M383.912 427.015C383.912 427.015 380.441 413.392 384.711 415.794C388.986 418.201 387.119 429.417 383.912 427.015Z" fill="#33A86D"/>
<path d="M374.558 414.191C374.558 414.191 375.093 407.246 376.426 411.79C377.765 416.329 375.627 416.863 374.558 414.191Z" fill="#33A86D"/>
<path d="M386.584 425.677C386.584 425.677 387.653 417.397 389.79 417.931C391.928 418.466 390.589 421.672 390.589 421.672C390.589 421.672 392.992 413.927 395.129 416.064C397.266 418.201 393.526 421.407 393.526 421.407C393.526 421.407 399.669 418.201 397.801 421.142C395.933 424.079 391.658 423.01 391.658 423.01C391.658 423.01 393.261 428.083 386.584 425.677Z" fill="#33A86D"/>
<path d="M364.141 435.294C364.141 435.294 356.395 429.152 359.866 428.348C363.337 427.549 362.537 430.216 362.537 430.216C362.537 430.216 366.543 427.814 366.278 429.417C366.013 431.02 367.077 431.284 367.077 431.284C367.077 431.284 373.225 436.632 364.141 435.294Z" fill="#33A86D"/>
<path d="M273.568 424.613C273.568 424.613 273.568 419.27 274.901 420.338C276.235 421.407 275.97 424.078 275.97 424.078C275.97 424.078 281.044 420.873 280.509 423.544C279.975 426.216 277.303 426.48 277.303 426.48C277.303 426.48 277.303 431.019 275.7 429.686C274.097 428.353 273.568 424.613 273.568 424.613Z" fill="#33A86D"/>
<path d="M275.171 413.123C275.171 413.123 279.98 414.726 277.843 416.329C275.705 417.931 275.171 413.123 275.171 413.123Z" fill="#33A86D"/>
<path d="M278.911 418.735C278.911 418.735 280.245 424.613 282.917 420.338C285.593 416.064 285.324 417.397 278.911 418.735Z" fill="#33A86D"/>
<path d="M257.537 391.216C257.537 391.216 254.066 385.339 258.071 386.677C262.076 388.015 259.14 390.148 259.14 390.148C259.14 390.148 265.018 389.349 263.415 392.015C261.812 394.687 258.341 393.084 258.341 393.084L257.537 391.216Z" fill="#33A86D"/>
<path d="M255.933 392.02C255.933 392.02 256.468 388.015 254.33 387.211C252.193 386.408 250.59 393.354 255.933 392.02Z" fill="#33A86D"/>
<path d="M257.537 383.471C257.537 383.471 253.531 378.128 256.203 378.663C258.875 379.197 259.409 380.53 259.409 380.53C259.409 380.53 263.15 380.266 261.547 384.001C259.944 387.736 257.537 383.471 257.537 383.471Z" fill="#33A86D"/>
<path d="M255.669 373.584C255.669 373.584 259.14 377.589 260.743 374.653C262.346 371.716 255.669 373.584 255.669 373.584Z" fill="#33A86D"/>
<path d="M266.89 375.187C266.89 375.187 270.361 371.981 268.758 371.981C267.155 371.981 267.155 371.981 266.356 371.981C265.552 371.981 265.018 374.922 266.89 375.187Z" fill="#33A86D"/>
<path d="M262.081 369.579C262.081 369.579 259.679 373.854 263.415 371.717C267.15 369.579 267.69 368.511 262.081 369.579Z" fill="#33A86D"/>
<path d="M262.679 354.888C262.679 354.888 261.88 350.349 264.547 351.952C267.219 353.555 265.081 355.423 265.081 355.423C265.081 355.423 270.425 354.354 268.288 357.56C266.15 360.766 264.282 358.893 264.282 358.893L262.679 354.888Z" fill="#33A86D"/>
<path d="M260.277 349.81C260.277 349.81 251.997 349.011 254.933 351.678C257.875 354.354 262.949 350.879 260.277 349.81Z" fill="#33A86D"/>
<path d="M259.478 354.085C259.478 354.085 255.203 357.555 258.943 356.486C262.679 355.423 260.811 353.82 259.478 354.085Z" fill="#33A86D"/>
<path d="M257.071 360.232C257.071 360.232 264.018 359.163 260.007 358.364C255.997 357.565 254.933 359.428 257.071 360.232Z" fill="#33A86D"/>
<path d="M261.611 365.839C261.611 365.839 264.013 362.633 261.076 362.633C258.14 362.633 258.139 365.305 261.611 365.839Z" fill="#33A86D"/>
<path d="M329.676 406.711C329.676 406.711 324.333 410.451 328.343 409.383C332.348 408.314 329.676 406.711 329.676 406.711Z" fill="#33A86D"/>
<path d="M330.745 410.721C330 411.334 333.417 415.53 334.216 411.52C335.02 407.515 335.285 406.981 330.745 410.721Z" fill="#33A86D"/>
<path d="M327.269 414.191C327.269 414.191 334.75 419.265 331.809 415.794C328.872 412.324 325.936 413.392 327.269 414.191Z" fill="#33A86D"/>
<path d="M328.338 418.466C328.338 418.466 331.809 424.074 332.078 421.137C332.348 418.201 332.882 418.201 328.338 418.466Z" fill="#33A86D"/>
<path d="M327.005 422.74C327.005 422.74 336.623 425.142 330.475 425.412C324.328 425.681 322.195 423.01 327.005 422.74Z" fill="#33A86D"/>
<path d="M338.226 397.898C338.226 397.898 335.555 401.638 339.295 400.035C343.036 398.432 346.507 396.025 338.226 397.898Z" fill="#33A86D"/>
<path d="M337.158 403.24C337.158 403.24 341.697 403.505 339.56 402.441C337.422 401.368 334.751 401.103 337.158 403.24Z" fill="#33A86D"/>
<path d="M337.157 406.177C337.157 406.177 340.094 409.383 341.697 405.912C343.3 402.437 335.02 404.843 337.157 406.177Z" fill="#33A86D"/>
<path d="M300.801 243.748C300.801 243.748 296.879 235.469 300.801 236.342C304.723 237.214 302.11 240.263 302.11 240.263C302.11 240.263 308.213 237.214 307.341 241.572C306.468 245.93 304.728 247.239 304.728 247.239C304.728 247.239 309.959 242.881 309.522 248.547C309.086 254.214 304.728 250.292 304.728 250.292C304.728 250.292 302.115 254.65 299.06 250.729C296.006 246.807 299.06 248.116 299.06 248.116C299.06 248.116 289.903 241.136 300.801 243.748Z" fill="#33A86D"/>
<path d="M292.006 290.238C289.868 291.037 287.196 299.051 295.011 294.243C302.825 289.439 294.143 289.439 292.006 290.238Z" fill="#33A86D"/>
<path d="M295.462 284.797C297.443 284.797 303.835 284.669 297.668 288.14C291.501 291.61 293.481 284.797 295.462 284.797Z" fill="#33A86D"/>
<path d="M297.305 299.159C297.305 299.159 300.605 295.306 295.653 297.056C290.707 298.811 291.942 301.615 297.305 299.159Z" fill="#33A86D"/>
<path d="M298.918 302.394C295.83 303.507 296.055 306.899 300.556 304.399C305.051 301.894 302.007 301.282 298.918 302.394Z" fill="#33A86D"/>
<path d="M301.463 293.914C299.507 294.247 300.904 298.973 305.733 296.385C308.223 295.046 303.419 293.576 301.463 293.914Z" fill="#33A86D"/>
<path d="M289.334 318.021C289.334 318.021 290.937 315.085 288 315.62C285.064 316.154 286.667 317.757 286.667 317.757C286.667 317.757 282.127 312.149 280.255 314.551C278.387 316.953 283.461 318.825 283.461 318.825C283.461 318.825 275.98 317.222 274.376 319.894C272.773 322.565 278.117 320.428 278.117 320.428C278.117 320.428 271.705 324.433 273.577 325.502C275.445 326.57 278.387 324.433 278.387 324.433C278.387 324.433 279.99 328.173 281.059 324.698C282.127 321.227 282.127 321.227 282.127 321.227C282.127 321.227 286.667 324.164 286.402 321.227C286.137 318.291 286.402 319.09 286.402 319.09C286.402 319.09 290.133 321.762 289.334 318.021Z" fill="#33A86D"/>
<path d="M328.872 245.493C328.872 245.493 322.862 242.288 325.264 248.297C327.666 254.307 330.877 247.895 328.872 245.493Z" fill="#288453"/>
<path d="M328.47 241.484C328.47 241.484 336.084 235.474 332.877 240.283C329.671 245.092 328.47 241.484 328.47 241.484Z" fill="#288453"/>
<path d="M322.862 235.474C322.862 235.474 320.058 239.881 324.867 239.082C329.676 238.283 322.862 235.474 322.862 235.474Z" fill="#288453"/>
<path d="M324.465 230.268C324.465 230.268 332.883 236.278 327.269 235.077C321.661 233.871 324.465 230.268 324.465 230.268Z" fill="#288453"/>
<path d="M332.079 247.096C332.079 247.096 325.666 252.307 330.476 251.905C335.285 251.503 332.079 247.096 332.079 247.096Z" fill="#288453"/>
<path d="M334.883 253.106C334.883 253.106 342.496 254.307 337.285 255.91C332.074 257.513 334.486 252.307 334.883 253.106Z" fill="#288453"/>
<path d="M66.2422 334.409C66.2422 334.409 76.2628 327.997 73.4537 333.208C70.6495 338.418 66.2422 334.409 66.2422 334.409Z" fill="#33A86D"/>
<path d="M67.4431 339.217C67.4431 339.217 65.438 346.031 69.8454 342.825C74.2576 339.619 67.4431 339.217 67.4431 339.217Z" fill="#33A86D"/>
<path d="M63.8351 337.614C63.8351 337.614 58.6238 326.796 55.4175 332.404C52.2113 338.011 58.6238 334.409 58.6238 334.409C58.6238 334.409 53.0153 340.016 57.0206 339.217C61.0309 338.418 63.8351 337.614 63.8351 337.614Z" fill="#33A86D"/>
<path d="M62.2325 328.399C62.2325 328.399 59.4283 335.609 65.4387 330.404C71.4492 325.198 63.8356 328.801 63.8356 328.801L62.2325 328.399Z" fill="#33A86D"/>
<path d="M146.927 214.239C146.927 214.239 152.535 209.43 152.138 213.837C151.736 218.244 146.927 214.239 146.927 214.239Z" fill="#33A86D"/>
<path d="M148.133 218.244C148.133 218.244 152.138 223.852 154.143 219.847C156.149 215.842 148.133 218.244 148.133 218.244Z" fill="#33A86D"/>
<path d="M157.752 222.254C157.752 222.254 150.54 231.067 157.752 227.062C164.963 223.058 164.963 221.048 157.752 222.254Z" fill="#33A86D"/>
<path d="M149.334 223.857C149.334 223.857 138.514 225.459 145.329 227.062C152.143 228.665 154.942 228.665 149.334 223.857Z" fill="#33A86D"/>
<path d="M156.948 234.273C156.948 234.273 166.165 231.469 162.556 230.665C158.953 229.866 154.144 234.273 156.948 234.273Z" fill="#33A86D"/>
<path d="M157.35 236.68C152.943 235.479 146.53 239.082 158.149 240.288C169.773 241.484 161.757 237.881 157.35 236.68Z" fill="#33A86D"/>
<path d="M367.527 181.845C365.125 175.703 364.591 167.953 369.395 158.87C369.395 158.87 371.537 163.36 374.17 163.11C376.808 162.86 378.974 159.404 379.107 154.208C379.239 148.919 377.984 146.62 377.984 146.62L382.494 152.444C382.494 152.444 383.122 147.64 382.774 143.807C382.387 139.557 380.082 135.478 380.082 135.478C380.082 135.478 392.049 139.067 394.795 148.674C396.888 155.993 396.29 160.65 396.29 160.65L400.124 156.468C400.124 156.468 404.933 173.032 400.903 181.796C397.565 189.051 391.255 193.144 384.897 193.6C377.582 194.12 369.934 187.987 367.527 181.845Z" fill="#FFACFF"/>
<path d="M385.833 185.85C385.833 185.85 379.965 184.997 376.974 179.144C373.9 173.135 378.224 171.458 378.224 171.458L381.024 176.233L386.235 162.208C386.235 162.208 389.441 166.081 390.108 167.816C390.775 169.551 395.765 182.546 385.833 185.85Z" fill="#9E54C7"/>
<path d="M389.838 133.356C389.838 133.356 389.436 130.552 390.637 130.552C391.843 130.552 393.045 132.959 389.838 133.356Z" fill="#9E54C7"/>
<path d="M372.606 142.174C372.606 142.174 370.601 136.567 373.807 133.758C373.807 133.758 366.596 138.567 372.606 142.174Z" fill="#FFACFF"/>
<path d="M385.465 121.204C385.563 122.052 384.441 122.439 384.009 121.704C383.049 120.057 382.009 117.895 383.823 118.935C384.96 119.582 385.377 120.425 385.465 121.204Z" fill="#FFACFF"/>
<path d="M111.57 197.303C111.57 197.303 100.015 200.386 92.5636 186.965C87.6758 179.044 90.8968 165.294 90.8968 165.294C90.8968 165.294 95.8973 164.96 99.2358 168.627C97.2356 157.622 102.903 152.289 102.903 152.289L105.903 153.622C105.903 153.622 107.849 151.368 112.095 144.157C112.095 144.157 126.822 153.279 124.699 164.696C122.576 176.112 123.248 172.289 123.248 172.289L131.587 167.622C131.577 167.627 138.456 196.102 111.57 197.303Z" fill="#FFACFF"/>
<path d="M117.071 189.803C117.071 189.803 111.571 194.303 107.065 190.303C102.565 186.303 103.565 180.299 103.565 180.299L105.565 182.298C105.565 182.298 105.065 178.299 108.565 172.794C112.066 167.294 112.066 167.294 112.066 167.294L114.066 174.794L117.066 172.294C117.071 172.294 125.077 185.798 117.071 189.803Z" fill="#9E54C7"/>
<path d="M90.8232 149.726C90.8232 149.726 90.5585 154.534 92.4263 156.137C94.2942 157.74 91.3576 151.329 93.7598 147.588L90.8232 149.726Z" fill="#9E54C7"/>
<path d="M105.516 137.701C105.516 137.701 102.58 141.441 104.447 142.51C106.315 143.579 105.516 137.701 105.516 137.701Z" fill="#FFACFF"/>
<path d="M120.478 139.039C120.478 139.039 120.214 143.044 121.812 141.976C123.42 140.907 122.351 136.098 120.478 139.039Z" fill="#9E54C7"/>
<path d="M111.664 125.148C111.664 125.148 114.066 125.682 113.801 128.084C113.537 130.486 111.664 125.148 111.664 125.148Z" fill="#FFACFF"/>
<path d="M125.988 409.118C125.856 410.054 135.842 414.995 142.255 414.726C148.667 414.456 160.521 414.873 161.683 413.574C162.801 412.324 158.953 411.319 158.953 411.319C158.953 411.319 149.883 408.216 141.72 406.677C131.097 404.677 126.121 408.182 125.988 409.118Z" fill="#C94039"/>
<path d="M155.545 429.652C155.545 431.824 155.241 452.397 154.81 456.215C154.521 458.764 151.3 460.382 150.991 456.916C150.545 451.951 149.045 444.441 148.824 442.402C148.172 436.289 149.765 430.373 149.765 430.373C149.765 430.373 155.545 428.647 155.545 429.652Z" fill="#F5894E"/>
<path d="M153.281 436.799C152.629 437.563 154.604 452.2 154.173 456.024C153.884 458.573 151.3 460.382 150.991 456.916C150.545 451.95 149.045 444.441 148.824 442.402C148.172 436.289 149.354 430.392 149.354 430.392C149.354 430.392 153.933 436.034 153.281 436.799Z" fill="#CC6D3D"/>
<path d="M156.815 417.799C156.717 419.937 156.899 423.932 156.541 426.853C156.482 427.348 156.59 426.902 155.864 434.078L148.589 434.127L148.265 426.128C147.844 424.789 146.711 416.892 146.692 417C147.094 414.995 156.948 414.844 156.815 417.799Z" fill="#273252"/>
<path d="M153.006 456.534C155.408 457.867 155.785 458.088 157.8 459.191C159.962 460.372 151.981 460.647 151.403 459.093C150.819 457.544 150.947 455.387 153.006 456.534Z" fill="#CC6D3D"/>
<path d="M150.692 457.313C150.947 456.75 152.305 457.024 152.57 457.132C152.834 457.24 155.639 458.318 155.639 458.318C155.639 458.318 158.428 459.5 159.193 459.612C161.365 459.931 162.997 461.47 157.727 462.004C155.634 462.215 153.491 461.328 153.491 461.328L153.31 461.98L152.81 462.078C152.81 462.078 150.878 462.205 150.775 461.98C150.638 461.666 150.437 457.877 150.692 457.313Z" fill="#992C29"/>
<path d="M158.825 461.877C158.825 461.877 155.766 462.44 153.486 461.225C153.486 461.225 153.158 460.548 154.212 460.739C157.413 461.323 157.8 461.774 158.825 461.877Z" fill="#C94039"/>
<path d="M155.629 417.799C155.506 420.201 154.918 423.01 154.678 425.28C154.624 425.775 154.555 432.358 153.888 433.427C153.222 434.495 148.834 433.691 148.834 433.691L147.75 425.353C147.363 424.044 146.535 416.863 146.51 417C146.868 414.995 155.776 414.844 155.629 417.799Z" fill="#1D2538"/>
<path d="M144.858 406.378C144.858 406.378 146.226 415.706 146.907 418.108C147.589 420.51 156.345 423.539 156.678 420.137C157.011 416.735 157.85 406.78 156.031 403.574C154.212 400.368 144.858 401.167 144.858 406.378Z" fill="#273252"/>
<path d="M144.858 406.378C144.858 406.378 146.089 415.706 146.706 418.108C147.324 420.51 155.207 423.539 155.511 420.137C155.81 416.731 156.57 406.78 154.928 403.574C153.281 400.368 144.858 401.167 144.858 406.378Z" fill="#1D2538"/>
<path d="M134.955 422.245C134.955 422.245 134.186 427.216 132.583 432.328C131.48 435.848 131.2 437.132 131.205 444.558C131.205 446.259 130.685 452.259 130.725 453.436C130.793 455.48 130.759 456.926 131.808 456.73C133.455 456.416 133.96 455.744 135.838 447.583C138.348 436.676 141.03 422.338 141.03 422.338L134.955 422.245Z" fill="#F5894E"/>
<path d="M134.955 422.245C134.955 422.245 134.186 427.216 132.583 432.328C131.48 435.848 131.2 437.132 131.205 444.558C131.205 446.259 130.224 453.842 130.264 455.019C130.332 457.063 130.759 456.926 131.803 456.73C133.45 456.416 132.759 453.744 134.637 445.583C137.147 434.676 136.372 434.098 136.372 434.098L134.955 422.245Z" fill="#CC6D3D"/>
<path d="M145.716 405.152C145.716 405.152 143.388 418.799 141.682 421.926C139.412 426.088 134.955 425.323 134.563 422.666C133.946 418.441 133.495 410.789 133.872 406.652C134.279 402.206 140.785 398.544 145.716 405.152Z" fill="#273252"/>
<path d="M134.627 421.666C133.288 422.353 132.279 432.294 132.279 432.294L138.794 433.593C138.794 433.593 140.525 429.166 141.525 423.005C142.446 417.333 135.745 419.568 134.627 421.666Z" fill="#273252"/>
<path d="M143.594 404.711C143.594 404.711 143.324 411.456 142 416.025C141.633 417.299 140.588 421.966 140.216 422.647C137.946 426.809 134.95 425.318 134.558 422.657C133.941 418.431 133.49 410.78 133.867 406.642C134.279 402.206 138.662 398.103 143.594 404.711Z" fill="#1D2538"/>
<path d="M131.387 453.617C131.911 453.475 132.475 453.622 132.921 453.941C134.671 455.195 134.563 455.47 136.858 457.048C138.515 458.191 130.627 459.176 130.195 457.916C129.818 456.833 129.651 454.088 131.387 453.617Z" fill="#CC6D3D"/>
<path d="M129.705 455.627C130.068 454.808 129.749 452.931 132.102 454.244C135.402 456.088 136.671 456.46 137.608 456.828C138.544 457.195 139.049 457.426 139.76 457.543C141.868 457.882 141.338 458.19 138.936 459.259C137.088 460.083 133.313 459.034 133.313 459.034L133.171 459.44C133.073 459.725 132.808 459.911 132.509 459.911L130.455 459.774C130.455 459.774 129.999 459.612 129.886 459.328C129.729 458.931 129.342 456.445 129.705 455.627Z" fill="#992C29"/>
<path d="M134.627 421.666C133.288 422.353 132.279 432.294 132.279 432.294L138.019 433.397C138.019 433.397 139.314 428.902 140.314 422.745C141.235 417.073 135.745 419.568 134.627 421.666Z" fill="#1D2538"/>
<path d="M152.942 380.8L152.143 385.608C152.143 385.608 156.148 393.888 158.423 399.5C160.693 405.108 162.031 408.181 161.894 413.123C161.894 413.123 156.55 411.255 151.609 411.118C146.667 410.985 131.705 403.77 125.959 409.113C125.959 409.113 133.308 394.956 136.244 388.143C136.244 388.143 132.372 372.648 137.313 369.976C142.255 367.305 148.535 368.374 149.868 369.04C151.202 369.712 155.477 373.32 152.942 380.8Z" fill="#F7BC4B"/>
<path d="M149.535 380.8L148.736 385.609L152.741 399.766L144.927 403.172L153.143 403.574C153.143 403.574 148.074 405.52 141.519 406.378C135.769 407.133 128.641 406.618 125.959 409.118C125.959 409.118 133.308 394.962 136.244 388.148C136.244 388.148 132.372 372.653 137.313 369.982C142.255 367.31 148.535 368.379 149.868 369.045C151.202 369.712 152.074 373.32 149.535 380.8Z" fill="#CE9436"/>
<path d="M137.132 346.849C137.132 346.849 138.818 348.737 140.505 349.501C141.78 350.085 142.78 350.158 142.78 350.158L142.51 349.668L143.113 349.163C143.113 349.163 140.775 349.016 137.607 346.531L137.132 346.849Z" fill="#EE5D4F"/>
<path d="M136.96 346.624C136.96 346.624 137.902 348.972 139.22 350.271C140.216 351.251 141.132 351.668 141.132 351.668L141.044 351.114L141.78 350.844C141.78 350.844 139.632 349.903 137.51 346.487L136.96 346.624Z" fill="#EE5D4F"/>
<path d="M138.034 347.844C138.622 347.717 139.059 344.521 137.642 344.511C136.308 344.502 134.803 344.737 135.097 345.732C135.387 346.722 137.446 347.972 138.034 347.844Z" fill="#992C29"/>
<path d="M138.47 346.021C138.47 346.021 138.196 344.668 137.774 344.717C137.352 344.766 137.754 345.33 137.901 346.222C138.049 347.109 138.573 346.59 138.47 346.021Z" fill="#F7BC4B"/>
<path d="M137.514 347.207C137.514 347.207 137.397 346.585 138.284 345.943C139.171 345.301 139.853 344.943 140.446 345.276C141.039 345.609 141.309 347.188 141.01 347.997C140.711 348.805 138.657 348.286 138.132 348.006C137.612 347.727 137.514 347.207 137.514 347.207Z" fill="#992C29"/>
<path d="M140.814 346.541C140.814 346.541 141.059 347.8 140.5 348.031C139.672 348.374 140.103 345.948 140.132 345.565C140.167 345.188 140.927 345.624 140.814 346.541Z" fill="#F7BC4B"/>
<path d="M147.912 349.011C147.912 349.011 150.824 349.933 152.05 354.065C153.275 358.202 153.163 363.834 147.647 363.834C138.995 363.834 139.083 356.869 139.333 355.29C140.406 348.55 147.912 349.011 147.912 349.011Z" fill="#CC6D3D"/>
<path d="M147.447 348.879C147.447 348.879 150.359 349.8 151.584 353.933C152.81 358.07 152.697 363.702 147.182 363.702C138.529 363.702 138.617 356.736 138.867 355.158C139.941 348.418 147.447 348.879 147.447 348.879Z" fill="#F5894E"/>
<path d="M149.682 356.491C149.682 356.491 150.633 350.781 147.726 348.678C145.329 346.943 143.152 346.791 140.093 347.242C140.093 347.242 144.383 346.889 147.692 350.996C148.858 352.442 149.682 356.491 149.682 356.491Z" fill="#F7BC4B"/>
<path d="M145.127 348.075C145.127 348.075 140.519 345.673 136.313 349.075C132.107 352.482 131.837 354.349 132.641 356.354C133.44 358.359 133.44 358.359 133.44 358.359C133.44 358.359 130.234 358.962 130.234 360.761C130.234 362.56 130.214 366.834 136.244 367.173C140.421 367.408 141.019 365.903 141.019 365.903C141.019 365.903 149.133 368.506 151.873 365.035C153.918 362.447 154.192 358.29 149.986 357.089C149.986 357.089 149.334 348.678 145.127 348.075Z" fill="#273252"/>
<path d="M143.525 348.075C143.525 348.075 138.45 345.168 134.71 349.075C131.705 352.212 130.768 354.619 131.038 356.354C131.366 358.486 131.837 358.359 131.837 358.359C131.837 358.359 128.631 358.962 128.631 360.761C128.631 362.56 128.631 366.57 134.641 367.173C140.652 367.775 141.255 366.374 141.255 366.374C141.255 366.374 150.251 368.511 151.741 363.854C152.81 360.516 152.859 358.844 148.653 357.643C148.648 357.643 147.731 348.678 143.525 348.075Z" fill="#1D2538"/>
<path d="M142.221 347.859C142.221 347.859 143.691 343.183 145.559 343.987C147.427 344.786 144.226 348.663 144.226 348.663C144.226 348.663 147.03 345.59 148.633 346.795C150.236 347.996 148.633 350.938 145.559 351.07C142.485 351.198 142.221 347.859 142.221 347.859Z" fill="#273252"/>
<path d="M141.72 347.805C141.72 347.805 143.191 343.129 145.059 343.933C146.927 344.732 143.726 348.609 143.726 348.609C143.726 348.609 146.53 345.536 148.133 346.742C149.736 347.943 148.133 350.884 145.059 351.016C141.985 351.148 141.72 347.805 141.72 347.805Z" fill="#1D2538"/>
<path d="M150.849 355.305C150.849 355.305 149.844 352.462 148.78 352.982C147.716 353.501 147.829 356.423 150.177 357.585C152.521 358.751 150.849 355.305 150.849 355.305Z" fill="#CC6D3D"/>
<path d="M151.275 355.521C151.275 355.521 150.476 353.266 149.633 353.678C148.79 354.095 148.878 356.408 150.741 357.33C152.609 358.256 151.275 355.521 151.275 355.521Z" fill="#F5894E"/>
<path d="M167.704 402.035C167.954 402.29 168.571 403.202 168.87 403.77C168.964 403.942 169.253 404.285 169.223 404.648C169.15 405.574 168.969 406.143 168.248 406.074C168.071 405.672 167.831 404.373 167.336 404.172C166.816 403.961 166.395 400.711 167.704 402.035Z" fill="#CC6D3D"/>
<path d="M160.227 399.589C160.193 399.525 160.365 399.001 161.154 398.501C162.081 397.917 162.546 398.481 162.546 398.481L172.616 410.348L169.224 413.02L160.227 399.589Z" fill="#1D2538"/>
<path d="M158.335 394.775C157.075 395.579 156.928 397.29 157.967 398.53C158.953 399.706 160.639 399.996 161.762 399.241C162.875 398.491 163.1 396.947 162.242 395.726C161.335 394.442 159.575 393.981 158.335 394.775ZM160.772 398.113C160.306 398.353 159.561 398.152 159.095 397.652C158.62 397.138 158.62 396.515 159.11 396.27C159.595 396.025 160.36 396.255 160.811 396.775C161.257 397.275 161.233 397.873 160.772 398.113Z" fill="#1D2538"/>
<path d="M159.154 395.353C158.428 395.8 158.35 396.78 158.963 397.52C159.085 397.667 159.222 397.79 159.37 397.893C159.272 397.824 159.178 397.741 159.095 397.652C158.619 397.138 158.619 396.515 159.11 396.27C159.595 396.025 160.36 396.255 160.811 396.775C161.252 397.28 161.232 397.873 160.772 398.118C160.482 398.27 160.09 398.246 159.718 398.094C160.232 398.319 160.816 398.309 161.252 398.035C161.924 397.608 162.032 396.687 161.483 395.956C160.919 395.192 159.875 394.912 159.154 395.353Z" fill="#F7BC4B"/>
<path d="M159.443 397.942C159.458 397.952 159.468 397.962 159.483 397.966C159.468 397.957 159.458 397.952 159.443 397.942Z" fill="#F6BE4A"/>
<path d="M159.61 398.035C159.634 398.045 159.654 398.054 159.678 398.069C159.654 398.059 159.629 398.045 159.61 398.035Z" fill="#F6BE4A"/>
<path d="M160.698 399.025C160.678 399.045 160.654 399.059 160.625 399.064C160.404 399.098 160.193 399.098 160.002 399.064C159.933 399.049 159.889 398.976 159.909 398.902C159.928 398.824 159.997 398.775 160.071 398.79C160.232 398.819 160.414 398.824 160.605 398.79C160.678 398.78 160.742 398.829 160.747 398.907C160.747 398.951 160.727 398.996 160.698 399.025Z" fill="#3E4C6F"/>
<path d="M165.017 403.687C165.64 403.025 165.865 402.363 165.865 402.363L170.773 408.177C171.327 408.78 172.92 410.545 172.92 410.545C172.92 410.545 169.797 413.093 169.268 413.402C169.268 413.402 167.821 411.182 167.439 410.53L163.61 404.76C163.61 404.751 164.395 404.353 165.017 403.687Z" fill="#C94039"/>
<path d="M164.845 406.53L164.37 405.706C164.37 405.706 165.198 405.206 166.493 403.824C166.493 403.824 166.841 404.054 164.845 406.53Z" fill="#1D2538"/>
<path d="M165.826 402.319C165.826 402.319 164.213 404.005 163.311 404.324L162.747 403.344C162.747 403.344 164.949 402.138 165.326 401.731L165.826 402.319Z" fill="#C73F37"/>
<path d="M167.586 404.403L167.777 404.633C167.777 404.633 166.503 406.157 165.297 406.839L167.586 404.403Z" fill="#1D2538"/>
<path d="M165.713 407.932L166.194 408.647C166.194 408.647 167.968 407.397 168.66 405.662C168.66 405.662 166.924 407.765 165.713 407.932Z" fill="#1D2538"/>
<path d="M167.439 410.52L166.723 409.427C166.723 409.427 168.733 408.554 169.758 406.942L171.297 408.755C171.297 408.76 169.934 409.255 167.439 410.52Z" fill="#1D2538"/>
<path d="M168.311 411.892L168.679 412.5C168.679 412.5 170.669 411.897 171.728 410.01C171.728 410.015 168.909 412.103 168.311 411.892Z" fill="#1D2538"/>
<path d="M178.685 410.118C178.528 410.172 178.43 410.304 178.298 410.402L166.836 419.417C166.679 419.525 166.331 419.446 165.414 419.294C164.796 419.191 164.198 418.853 164.394 418.236C164.654 417.427 164.791 416.383 165.076 416.216L176.317 407.799C176.494 407.672 177.337 407.554 177.685 407.505C178.077 407.451 178.312 407.231 178.788 407.319C179.141 407.383 179.352 407.745 179.327 408.182L178.685 410.118Z" fill="#C94039"/>
<path d="M178.347 409.569C178.288 409.726 178.185 409.868 178.048 409.971L166.154 418.883C166.12 418.907 164.62 418.887 164.404 418.51C164.189 418.133 164.855 416.348 164.855 416.348C164.855 416.348 176.803 407.103 177.028 407.128C177.44 407.177 177.965 407.113 178.465 407.201C178.837 407.27 179.053 407.647 178.925 408L178.347 409.569Z" fill="#F5894E"/>
<path d="M178.347 409.569C178.288 409.726 178.185 409.868 178.048 409.971L175.283 409.892L164.855 416.343C164.855 416.343 176.803 407.098 177.028 407.123C177.538 407.103 177.964 407.108 178.464 407.196C178.837 407.265 179.053 407.643 178.925 407.995L178.347 409.569Z" fill="#FEED7F"/>
<path opacity="0.5" d="M190.063 432.554L187.725 429.49L179.636 428.24L181.867 431.284L190.063 432.554Z" fill="#FEED7F"/>
<path opacity="0.5" d="M187 428.627L186.054 427.49L177.965 426.24L178.803 427.358L187 428.627Z" fill="#FEED7F"/>
<path d="M176.621 411.236L175.89 411.133C175.64 411.093 175.591 411.108 175.547 411.363L175.381 412.162L176.621 411.236Z" fill="#C94039"/>
<path d="M203.457 448.882C203.457 448.882 176.332 414.534 175.959 414C175.587 413.465 175.194 412.961 175.194 412.961C174.939 412.755 174.68 412.877 173.748 413.652L169.91 416.657L197.128 453.818C197.26 454.004 202.751 455.46 202.751 455.46C202.884 455.406 203.134 455.509 203.261 454.975L203.741 449.622C203.727 449.239 203.57 449.029 203.457 448.882Z" fill="#F7BC4B"/>
<path d="M203.457 448.882C203.457 448.882 176.342 414.49 175.969 413.956C175.591 413.422 175.018 412.711 175.018 412.711C175.018 412.711 174.984 412.687 174.493 413.079L202.884 449.691C202.884 449.691 203.134 455.509 203.261 454.975L203.741 449.622C203.727 449.24 203.57 449.029 203.457 448.882Z" fill="#F5894E"/>
<path d="M190.333 432.466L191.466 433.784C191.569 433.868 191.397 434.034 191.157 434.083L189.524 434.417C189.377 434.446 189.279 434.397 189.304 434.309L189.975 432.505C190.015 432.363 190.225 432.382 190.333 432.466Z" fill="#F5894E"/>
<path d="M190.897 445.279L192.27 445.461L191.936 446.686L190.897 445.279Z" fill="#F5894E"/>
<path d="M193.304 447.088L195.172 446.99L194.098 448.294L193.304 447.088Z" fill="#F5894E"/>
<path d="M203.021 455.313L172.327 414.794" stroke="#F3E7D9" stroke-miterlimit="10"/>
<path d="M186.205 438.789L187.053 438.152L188.446 438.892L188.456 440.333L191.377 441.147L192.5 441.475" stroke="#F3E7D9" stroke-miterlimit="10"/>
<path d="M156.947 377.462C156.947 377.462 160.154 385.207 160.82 387.746C161.105 388.819 161.551 390.873 160.806 391.603C159.791 392.599 157.34 391.922 156.413 390.153C154.81 387.079 151.001 380.001 151.535 378.133C152.074 376.256 155.545 374.256 156.947 377.462Z" fill="#F5894E"/>
<path d="M154.741 379.128C154.741 379.128 157.546 385.138 158.649 387.844C159.237 389.285 158.016 393.221 156.413 390.148C154.81 387.074 151.001 379.996 151.535 378.128C152.074 376.256 153.339 375.922 154.741 379.128Z" fill="#CC6D3D"/>
<path d="M164.762 402.971C164.762 402.971 167.316 403.373 165.095 398.829C163.384 395.329 162.507 392.152 161.404 389.246C160.36 386.496 156.663 388.447 156.795 390.447C156.928 392.451 158.506 394.491 160.154 397.491C162.424 401.638 163.159 403.103 164.762 402.971Z" fill="#F5894E"/>
<path d="M164.762 402.971C164.762 402.971 166.934 403.755 164.713 399.216C163.002 395.716 160.59 390.922 158.953 388.246C157.051 385.138 155.746 386.942 155.879 388.947C156.011 390.952 158.507 394.496 160.154 397.496C162.424 401.638 163.159 403.103 164.762 402.971Z" fill="#CC6D3D"/>
<path d="M162.826 401.236C162.826 401.236 163.316 399.814 165.164 400.319C166.478 400.677 166.395 400.711 167.704 402.04C167.954 402.294 168.537 403.275 168.841 403.843C169.145 404.412 166.375 404.716 166.238 404.843C165.973 405.093 166.223 407.079 166.223 407.079L166.625 408.431C166.625 408.431 166.958 409.431 167.091 409.833C167.223 410.235 166.605 410.235 166.346 410.044C166.086 409.853 165.37 408.882 165.37 408.882C164.944 409.069 164.821 409.235 163.816 407.456C163.512 406.922 163.017 405.951 163.017 405.951C163.017 405.951 162.424 402.839 162.826 401.236Z" fill="#CC6D3D"/>
<path d="M151.138 368.247C151.138 368.247 152.942 367.982 154.546 371.183C156.149 374.389 157.286 377.996 157.286 377.996L151.874 380.398C151.874 380.398 150.604 379.795 149.202 373.585C147.966 368.114 151.138 368.247 151.138 368.247Z" fill="#C94039"/>
<path d="M152.138 368.442C152.138 368.442 151.888 373.119 152.187 373.82C152.486 374.521 154.844 379.03 154.844 379.03L151.873 380.398C151.873 380.398 150.604 379.795 149.201 373.584C148.584 370.849 148.937 368.908 150.069 368.374C151.04 367.923 152.138 368.442 152.138 368.442Z" fill="#992C29"/>
<path d="M152.775 372.57C152.775 372.57 152.329 375.344 153.28 376.805L154.04 377.565C154.04 377.56 152.668 373.109 152.775 372.57Z" fill="#992C29"/>
<path d="M147.461 367.04C145.368 367.04 134.038 367.908 132.033 371.114C128.753 376.359 126.356 382.334 123.552 384.54C120.748 386.746 107.722 391.751 102.712 391.153C97.7012 390.555 94.897 389.55 91.4898 393.957C88.0826 398.363 80.8711 406.78 79.469 407.378C79.469 407.378 88.6219 409.113 91.2251 407.912C93.8283 406.711 98.0395 406.976 104.452 409.383C110.864 411.785 113.07 409.986 113.07 409.986C113.07 409.986 118.679 406.378 122.89 401.77C127.096 397.162 135.715 397.03 139.588 394.157C143.461 391.285 145.574 389.795 147.672 384.074C148.922 380.658 151.339 374.638 151.614 372.785C152.001 370.182 151.824 368.124 151.349 367.844C150.368 367.276 149.064 367.04 147.461 367.04Z" fill="#1689CB"/>
<path d="M147.515 369.903C147.515 369.903 142.024 374.658 136.156 376.354C133.862 377.02 131.602 376.952 129.602 374.29C127.606 371.628 128.724 368.859 130.259 366.153C131.793 363.447 135.318 364.055 140.431 363.751C145.544 363.447 150.074 364.79 147.515 369.903Z" fill="#29ABE2"/>
<path d="M146.128 364.369C147.432 365.369 133.352 371.398 132.2 370.349C131.053 369.3 131.293 366.643 132.71 364.874C133.73 363.599 135.2 363.898 139.47 363.746C143.304 363.614 144.824 363.369 146.128 364.369Z" fill="#992C29"/>
</svg>
