<svg width="187" height="36" viewBox="0 0 187 36" fill="none" xmlns="http://www.w3.org/2000/svg">
<path d="M70.4742 24.3213H66.8454L58.6288 11.9056V24.3213H55V6.2032H58.6288L66.8454 18.6448V6.2032H70.4742V24.3213ZM87.5892 16.8304C87.5892 17.3488 87.5546 17.8154 87.4855 18.2301H76.9879C77.0743 19.2669 77.4372 20.079 78.0765 20.6666C78.7159 21.2541 79.5021 21.5478 80.4353 21.5478C81.7831 21.5478 82.7421 20.969 83.3124 19.8112H87.2263C86.8116 21.1936 86.0167 22.3341 84.8417 23.2326C83.6666 24.1139 82.2237 24.5546 80.513 24.5546C79.1306 24.5546 77.8865 24.2522 76.7805 23.6474C75.6919 23.0253 74.8365 22.1526 74.2145 21.0294C73.6097 19.9062 73.3073 18.6102 73.3073 17.1414C73.3073 15.6554 73.6097 14.3507 74.2145 13.2275C74.8193 12.1043 75.666 11.2403 76.7546 10.6355C77.8433 10.0307 79.0961 9.72832 80.513 9.72832C81.8781 9.72832 83.0964 10.0221 84.1677 10.6096C85.2564 11.1971 86.0945 12.0352 86.682 13.1238C87.2868 14.1952 87.5892 15.4307 87.5892 16.8304ZM83.8308 15.7936C83.8135 14.8605 83.4765 14.1174 82.8199 13.5645C82.1633 12.9942 81.3597 12.7091 80.4093 12.7091C79.5108 12.7091 78.7505 12.9856 78.1284 13.5386C77.5236 14.0742 77.1521 14.8259 77.0138 15.7936H83.8308ZM98.9196 24.3213L94.0467 18.2042V24.3213H90.4179V5.14048H94.0467V16.0528L98.8678 9.9616H103.585L97.2608 17.1674L103.637 24.3213H98.9196ZM112.111 24.5546C110.729 24.5546 109.484 24.2522 108.378 23.6474C107.273 23.0253 106.4 22.1526 105.761 21.0294C105.138 19.9062 104.827 18.6102 104.827 17.1414C104.827 15.6726 105.147 14.3766 105.786 13.2534C106.443 12.1302 107.333 11.2662 108.456 10.6614C109.579 10.0394 110.832 9.72832 112.215 9.72832C113.597 9.72832 114.85 10.0394 115.973 10.6614C117.096 11.2662 117.977 12.1302 118.617 13.2534C119.273 14.3766 119.602 15.6726 119.602 17.1414C119.602 18.6102 119.265 19.9062 118.591 21.0294C117.934 22.1526 117.036 23.0253 115.895 23.6474C114.772 24.2522 113.511 24.5546 112.111 24.5546ZM112.111 21.3923C112.768 21.3923 113.381 21.2368 113.951 20.9258C114.539 20.5974 115.005 20.1136 115.351 19.4742C115.697 18.8349 115.869 18.0573 115.869 17.1414C115.869 15.7763 115.506 14.7309 114.781 14.0051C114.072 13.2621 113.2 12.8906 112.163 12.8906C111.126 12.8906 110.253 13.2621 109.545 14.0051C108.854 14.7309 108.508 15.7763 108.508 17.1414C108.508 18.5066 108.845 19.5606 109.519 20.3037C110.21 21.0294 111.074 21.3923 112.111 21.3923ZM121.511 17.0896C121.511 15.6381 121.796 14.3507 122.366 13.2275C122.954 12.1043 123.748 11.2403 124.751 10.6355C125.753 10.0307 126.868 9.72832 128.094 9.72832C129.028 9.72832 129.917 9.93568 130.764 10.3504C131.611 10.7478 132.285 11.2835 132.786 11.9574V5.14048H136.467V24.3213H132.786V22.1958C132.337 22.9043 131.706 23.4746 130.894 23.9066C130.082 24.3386 129.14 24.5546 128.068 24.5546C126.859 24.5546 125.753 24.2435 124.751 23.6214C123.748 22.9994 122.954 22.1267 122.366 21.0035C121.796 19.863 121.511 18.5584 121.511 17.0896ZM132.812 17.1414C132.812 16.2602 132.639 15.5085 132.293 14.8864C131.948 14.247 131.481 13.7632 130.894 13.4349C130.306 13.0893 129.676 12.9165 129.002 12.9165C128.328 12.9165 127.706 13.0806 127.135 13.409C126.565 13.7373 126.099 14.2211 125.736 14.8605C125.39 15.4826 125.217 16.2256 125.217 17.0896C125.217 17.9536 125.39 18.7139 125.736 19.3706C126.099 20.0099 126.565 20.5024 127.135 20.848C127.723 21.1936 128.345 21.3664 129.002 21.3664C129.676 21.3664 130.306 21.2022 130.894 20.8739C131.481 20.5283 131.948 20.0445 132.293 19.4224C132.639 18.783 132.812 18.0227 132.812 17.1414ZM142.031 8.25088C141.392 8.25088 140.856 8.05216 140.424 7.65472C140.009 7.24 139.802 6.73024 139.802 6.12544C139.802 5.52064 140.009 5.01952 140.424 4.62208C140.856 4.20736 141.392 4 142.031 4C142.67 4 143.197 4.20736 143.612 4.62208C144.044 5.01952 144.26 5.52064 144.26 6.12544C144.26 6.73024 144.044 7.24 143.612 7.65472C143.197 8.05216 142.67 8.25088 142.031 8.25088ZM143.819 9.9616V24.3213H140.191V9.9616H143.819ZM155.542 9.75424C157.253 9.75424 158.635 10.2986 159.689 11.3872C160.743 12.4586 161.27 13.9619 161.27 15.8973V24.3213H157.642V16.3898C157.642 15.2493 157.356 14.3766 156.786 13.7718C156.216 13.1498 155.438 12.8387 154.453 12.8387C153.451 12.8387 152.656 13.1498 152.069 13.7718C151.499 14.3766 151.213 15.2493 151.213 16.3898V24.3213H147.585V9.9616H151.213V11.7501C151.697 11.128 152.311 10.6442 153.054 10.2986C153.814 9.93568 154.644 9.75424 155.542 9.75424ZM170.526 9.72832C171.597 9.72832 172.539 9.94432 173.351 10.3763C174.163 10.791 174.803 11.3354 175.269 12.0093V9.9616H178.924V24.425C178.924 25.7555 178.656 26.9392 178.121 27.976C177.585 29.0301 176.781 29.8595 175.71 30.4643C174.639 31.0864 173.343 31.3974 171.822 31.3974C169.783 31.3974 168.107 30.9222 166.793 29.9718C165.497 29.0214 164.763 27.7254 164.59 26.0838H168.193C168.383 26.7405 168.789 27.2589 169.411 27.639C170.051 28.0365 170.82 28.2352 171.718 28.2352C172.772 28.2352 173.628 27.9155 174.284 27.2762C174.941 26.6541 175.269 25.7037 175.269 24.425V22.1958C174.803 22.8698 174.155 23.4314 173.325 23.8806C172.513 24.3299 171.58 24.5546 170.526 24.5546C169.316 24.5546 168.21 24.2435 167.208 23.6214C166.206 22.9994 165.411 22.1267 164.823 21.0035C164.253 19.863 163.968 18.5584 163.968 17.0896C163.968 15.6381 164.253 14.3507 164.823 13.2275C165.411 12.1043 166.197 11.2403 167.182 10.6355C168.185 10.0307 169.299 9.72832 170.526 9.72832ZM175.269 17.1414C175.269 16.2602 175.097 15.5085 174.751 14.8864C174.405 14.247 173.939 13.7632 173.351 13.4349C172.764 13.0893 172.133 12.9165 171.459 12.9165C170.785 12.9165 170.163 13.0806 169.593 13.409C169.023 13.7373 168.556 14.2211 168.193 14.8605C167.848 15.4826 167.675 16.2256 167.675 17.0896C167.675 17.9536 167.848 18.7139 168.193 19.3706C168.556 20.0099 169.023 20.5024 169.593 20.848C170.18 21.1936 170.802 21.3664 171.459 21.3664C172.133 21.3664 172.764 21.2022 173.351 20.8739C173.939 20.5283 174.405 20.0445 174.751 19.4224C175.097 18.783 175.269 18.0227 175.269 17.1414ZM184.255 24.5027C183.598 24.5027 183.054 24.304 182.622 23.9066C182.207 23.4918 182 22.9821 182 22.3773C182 21.7725 182.207 21.2714 182.622 20.8739C183.054 20.4592 183.598 20.2518 184.255 20.2518C184.894 20.2518 185.422 20.4592 185.836 20.8739C186.251 21.2714 186.458 21.7725 186.458 22.3773C186.458 22.9821 186.251 23.4918 185.836 23.9066C185.422 24.304 184.894 24.5027 184.255 24.5027Z" fill="url(#paint0_linear_227_6)"/>
<path d="M18 36C27.9411 36 36 27.9411 36 18C36 8.05888 27.9411 0 18 0C8.05888 0 0 8.05888 0 18C0 27.9411 8.05888 36 18 36Z" fill="url(#paint1_linear_227_6)"/>
<path d="M17.9609 28.0173V15.3801H15.4216C15.1772 15.3801 14.9433 15.2807 14.7737 15.1048L9.53058 9.66644C8.96854 9.08347 7.98267 9.48131 7.98267 10.2911V27.1173C7.98267 27.6145 8.3856 28.0173 8.88267 28.0173H17.9609Z" fill="white"/>
<path d="M17.9607 28.0173V15.3802H20.5C20.7445 15.3802 20.9783 15.2808 21.148 15.1048L26.3911 9.66643C26.953 9.08347 27.9389 9.48132 27.9389 10.2911V27.1173C27.9389 27.6145 27.5361 28.0173 27.0389 28.0173H17.9607Z" fill="white"/>
<path d="M22.1265 19.9966L20.4889 21.6344C20.4167 21.7064 20.414 21.8225 20.4825 21.8979L21.7924 23.3386" stroke="#FC62B9" stroke-linecap="round"/>
<path d="M13.7739 19.9966L15.4116 21.6344C15.4837 21.7064 15.4865 21.8225 15.4179 21.8979L14.1081 23.3386" stroke="#FC62B9" stroke-linecap="round"/>
<path d="M18.523 19.3282L17.3772 24.0547" stroke="#FC62B9" stroke-linecap="round"/>
<defs>
<linearGradient id="paint0_linear_227_6" x1="53.2115" y1="-4.11872" x2="189.835" y2="6.25146" gradientUnits="userSpaceOnUse">
<stop stop-color="#8AD4EC"/>
<stop offset="0.217372" stop-color="#EF96FF"/>
<stop offset="0.540308" stop-color="#FF56A9"/>
<stop offset="0.852826" stop-color="#FFAA6C"/>
</linearGradient>
<linearGradient id="paint1_linear_227_6" x1="0" y1="0" x2="36.7724" y2="0.807077" gradientUnits="userSpaceOnUse">
<stop stop-color="#8AD4EC"/>
<stop offset="0.217372" stop-color="#EF96FF"/>
<stop offset="0.540308" stop-color="#FF56A9"/>
<stop offset="0.852826" stop-color="#FFAA6C"/>
</linearGradient>
</defs>
</svg>
